<svg version="1.1" xmlns="http://www.w3.org/2000/svg" width="400px" height="400px" viewBox="0 0 400 400" preserveAspectRatio="xMidYMid meet" style="top:0;left:0;width:100%;max-width:600px;height:100%;">
<style type="text/css">
	.st0{fill:#FFFFFF;stroke:#000000;stroke-width:0.5;stroke-linecap:round;stroke-linejoin:round;stroke-miterlimit:10;}
</style>
<g>
	<polygon class="st0" points="173.4,222.9 146.3,214.1 146.3,185.6 173.4,176.8 156.7,199.9 	"/>
</g>
<g>
	<polygon class="st0" points="173.4,222.9 156.7,199.9 173.4,176.8 200.6,185.6 173.4,194.4 	"/>
</g>
<g>
	<polygon class="st0" points="200.6,231.8 173.4,222.9 173.4,194.4 200.6,185.6 183.8,208.7 	"/>
</g>
<g>
	<polygon class="st0" points="200.6,185.6 173.4,194.4 173.4,222.9 200.6,231.8 183.8,208.7 	"/>
</g>
<g>
	<polygon class="st0" points="200.6,185.6 183.8,208.7 200.6,231.8 227.7,222.9 200.6,214.1 	"/>
</g>
<g>
	<polygon class="st0" points="227.7,176.8 254.9,185.6 254.9,214.1 227.7,222.9 244.5,199.9 	"/>
</g>
<g>
	<polygon class="st0" points="227.7,176.8 244.5,199.9 227.7,222.9 200.6,214.1 227.7,205.3 	"/>
</g>
<g>
	<polygon class="st0" points="200.6,168 227.7,176.8 227.7,205.3 200.6,214.1 217.4,191.1 	"/>
</g>
<g>
	<polygon class="st0" points="200.6,214.1 227.7,205.3 227.7,176.8 200.6,168 217.4,191.1 	"/>
</g>
<g>
	<polygon class="st0" points="200.6,214.1 217.4,191.1 200.6,168 173.5,176.8 200.6,185.6 	"/>
</g>
<g>
	<polygon class="st0" points="173.3,130.6 200.5,121.8 217.2,144.9 200.5,168 200.5,139.4 	"/>
</g>
<g>
	<polygon class="st0" points="200.5,168 217.2,144.9 200.5,121.8 173.3,130.6 200.5,139.4 	"/>
</g>
<g>
	<polygon class="st0" points="173.3,130.6 200.5,139.4 200.5,168 173.3,176.8 190.1,153.7 	"/>
</g>
<g>
	<polygon class="st0" points="173.3,176.8 200.5,168 200.5,139.4 173.3,130.6 190.1,153.7 	"/>
</g>
<g>
	<polygon class="st0" points="173.3,176.8 190.1,153.7 173.3,130.6 146.2,139.4 173.3,148.3 	"/>
</g>
<g>
	<polygon class="st0" points="227.6,176.8 254.7,168 254.7,139.5 227.6,130.6 244.4,153.7 	"/>
</g>
<g>
	<polygon class="st0" points="227.6,130.6 244.4,153.7 227.6,176.8 200.5,168 227.6,159.2 	"/>
</g>
<g>
	<polygon class="st0" points="200.5,168 227.6,176.8 244.4,153.7 227.6,130.6 227.6,159.2 	"/>
</g>
<g>
	<polygon class="st0" points="200.5,168 227.6,159.2 227.6,130.6 200.5,121.8 217.2,144.9 	"/>
</g>
<g>
	<polygon class="st0" points="227.6,130.6 254.7,139.4 254.7,168 227.6,176.8 244.4,153.7 	"/>
</g>
<g>
	<polygon class="st0" points="227.6,176.8 254.7,168 254.7,139.4 227.6,130.6 244.4,153.7 	"/>
</g>
<g>
	<polygon class="st0" points="227.6,176.8 254.7,185.6 271.5,162.5 254.7,139.4 254.7,168 	"/>
</g>
<g>
	<polygon class="st0" points="146.3,139.4 173.4,148.3 173.4,176.8 146.3,185.6 163.1,162.5 	"/>
</g>
<g>
	<polygon class="st0" points="146.3,185.6 173.4,176.8 173.4,148.3 146.3,139.4 163.1,162.5 	"/>
</g>
<g>
	<polygon class="st0" points="146.3,185.6 163.1,162.5 146.3,139.4 119.2,148.3 146.3,157.1 	"/>
</g>
<g>
	<polygon class="st0" points="102.4,171.4 119.2,148.3 146.3,157.1 146.3,185.7 129.5,162.6 	"/>
</g>
<g>
	<polygon class="st0" points="146.3,185.7 146.3,157.1 119.2,148.3 102.4,171.4 129.5,162.6 	"/>
</g>
<g>
	<polygon class="st0" points="146.3,185.7 129.5,162.6 102.4,171.4 102.4,199.9 119.2,176.8 	"/>
</g>
<g>
	<polygon class="st0" points="102.4,199.9 119.2,176.8 146.3,185.6 146.3,214.2 129.5,191.1 	"/>
</g>
<g>
	<polygon class="st0" points="146.3,214.1 146.3,185.6 119.2,176.8 102.4,199.9 129.5,191.1 	"/>
</g>
<g>
	<polygon class="st0" points="146.3,214.2 129.5,191.1 102.4,199.9 102.4,228.4 119.2,205.3 	"/>
</g>
<g>
	<polygon class="st0" points="254.8,185.7 281.9,176.9 281.9,148.3 254.8,139.5 271.5,162.6 	"/>
</g>
<g>
	<polygon class="st0" points="254.8,185.7 281.9,194.5 298.7,171.4 281.9,148.3 281.9,176.8 	"/>
</g>
<g>
	<polygon class="st0" points="227.8,269.2 200.6,278 183.9,254.9 200.6,231.8 200.6,260.4 	"/>
</g>
<g>
	<polygon class="st0" points="200.6,231.8 183.9,254.9 200.6,278 227.8,269.2 200.6,260.4 	"/>
</g>
<g>
	<polygon class="st0" points="227.8,269.2 200.6,260.4 200.6,231.8 227.8,223 211,246.1 	"/>
</g>
<g>
	<polygon class="st0" points="227.8,223 200.6,231.8 200.6,260.4 227.8,269.2 211,246.1 	"/>
</g>
<g>
	<polygon class="st0" points="227.8,223 211,246.1 227.8,269.2 254.9,260.4 227.8,251.5 	"/>
</g>
<g>
	<polygon class="st0" points="173.5,223 146.4,231.8 146.4,260.3 173.5,269.2 156.7,246.1 	"/>
</g>
<g>
	<polygon class="st0" points="173.5,269.2 156.7,246.1 173.5,223 200.6,231.8 173.5,240.6 	"/>
</g>
<g>
	<polygon class="st0" points="200.6,231.8 173.5,223 156.7,246.1 173.5,269.2 173.5,240.6 	"/>
</g>
<g>
	<polygon class="st0" points="200.6,231.8 173.5,240.6 173.5,269.2 200.6,278 183.9,254.9 	"/>
</g>
<g>
	<polygon class="st0" points="173.5,269.2 146.4,260.4 146.4,231.8 173.5,223 156.7,246.1 	"/>
</g>
<g>
	<polygon class="st0" points="173.5,223 146.4,231.8 146.4,260.4 173.5,269.2 156.7,246.1 	"/>
</g>
<g>
	<polygon class="st0" points="173.5,223 146.4,214.2 129.6,237.3 146.4,260.4 146.4,231.8 	"/>
</g>
<g>
	<polygon class="st0" points="254.8,260.4 227.7,251.5 227.7,223 254.8,214.2 238,237.3 	"/>
</g>
<g>
	<polygon class="st0" points="254.8,214.2 227.7,223 227.7,251.5 254.8,260.4 238,237.3 	"/>
</g>
<g>
	<polygon class="st0" points="254.8,214.2 238,237.3 254.8,260.4 281.9,251.5 254.8,242.7 	"/>
</g>
<g>
	<polygon class="st0" points="298.7,228.4 281.9,251.5 254.8,242.7 254.8,214.1 271.6,237.2 	"/>
</g>
<g>
	<polygon class="st0" points="254.8,214.2 254.8,242.7 281.9,251.5 298.7,228.4 271.6,237.2 	"/>
</g>
<g>
	<polygon class="st0" points="254.8,214.1 271.6,237.2 298.7,228.4 298.7,199.9 281.9,223 	"/>
</g>
<g>
	<polygon class="st0" points="298.7,199.9 281.9,223 254.8,214.2 254.8,185.7 271.6,208.7 	"/>
</g>
<g>
	<polygon class="st0" points="254.8,185.7 254.8,214.2 281.9,223 298.7,199.9 271.6,208.7 	"/>
</g>
<g>
	<polygon class="st0" points="254.8,185.7 271.6,208.7 298.7,199.9 298.7,171.4 281.9,194.5 	"/>
</g>
<g>
	<polygon class="st0" points="146.3,214.2 119.2,205.3 102.4,228.4 119.2,251.5 119.2,223 	"/>
</g>
<g>
	<polygon class="st0" points="200.5,121.8 217.2,98.7 200.5,75.6 173.3,84.4 200.5,93.3 	"/>
</g>
<g>
	<polygon class="st0" points="173.3,130.6 200.5,121.8 200.5,93.3 173.3,84.4 190.1,107.5 	"/>
</g>
<g>
	<polygon class="st0" points="173.3,130.6 190.1,107.5 173.3,84.4 146.2,93.3 173.3,102.1 	"/>
</g>
<g>
	<polygon class="st0" points="200.5,121.8 227.6,130.6 244.4,107.5 227.6,84.4 227.6,113 	"/>
</g>
<g>
	<polygon class="st0" points="200.5,121.8 227.6,113 227.6,84.5 200.5,75.6 217.2,98.7 	"/>
</g>
<g>
	<polygon class="st0" points="227.6,130.6 254.7,121.8 254.7,93.3 227.6,84.4 244.4,107.5 	"/>
</g>
<g>
	<polygon class="st0" points="146.2,139.4 173.4,130.6 173.4,102.1 146.2,93.3 163,116.3 	"/>
</g>
<g>
	<polygon class="st0" points="146.3,139.4 163.1,116.3 146.3,93.3 119.2,102.1 146.3,110.9 	"/>
</g>
<g>
	<polygon class="st0" points="254.8,139.5 281.9,130.7 281.9,102.1 254.8,93.3 271.5,116.4 	"/>
</g>
<g>
	<polygon class="st0" points="254.8,93.3 281.9,102.1 281.9,130.6 254.8,139.5 271.5,116.4 	"/>
</g>
<g>
	<polygon class="st0" points="254.8,139.5 281.9,148.3 298.7,125.2 281.9,102.1 281.9,130.6 	"/>
</g>
<g>
	<polygon class="st0" points="281.9,148.3 309,139.5 309,110.9 281.9,102.1 298.7,125.2 	"/>
</g>
<g>
	<polygon class="st0" points="281.9,102.1 309.1,110.9 309.1,139.5 281.9,148.3 298.7,125.2 	"/>
</g>
<g>
	<polygon class="st0" points="281.9,148.3 309.1,139.5 309.1,110.9 281.9,102.1 298.7,125.2 	"/>
</g>
<g>
	<polygon class="st0" points="281.9,148.3 309.1,157.1 325.8,134 309.1,111 309.1,139.5 	"/>
</g>
<g>
	<polygon class="st0" points="342.6,214.1 325.8,237.2 298.7,228.4 298.7,199.9 315.5,223 	"/>
</g>
<g>
	<polygon class="st0" points="298.7,199.9 298.7,228.4 325.8,237.2 342.6,214.1 315.5,223 	"/>
</g>
<g>
	<polygon class="st0" points="298.7,199.9 315.5,223 342.6,214.1 342.6,185.6 325.8,208.7 	"/>
</g>
<g>
	<polygon class="st0" points="342.6,185.6 325.8,208.7 298.7,199.9 298.7,171.4 315.5,194.5 	"/>
</g>
<g>
	<polygon class="st0" points="298.7,171.4 298.7,199.9 325.8,208.7 342.6,185.6 315.5,194.5 	"/>
</g>
<g>
	<polygon class="st0" points="298.7,171.4 315.5,194.5 342.6,185.6 342.6,157.1 325.8,180.2 	"/>
</g>
<g>
	<polygon class="st0" points="298.7,171.4 325.8,180.2 342.6,157.1 325.8,134 325.8,162.6 	"/>
</g>
<g>
	<polygon class="st0" points="281.9,148.3 298.7,171.4 325.8,162.6 325.8,134 309.1,157.1 	"/>
</g>
<g>
	<polygon class="st0" points="298.7,228.4 315.5,251.5 342.6,242.7 342.6,214.2 325.8,237.2 	"/>
</g>
<g>
	<polygon class="st0" points="298.7,228.5 298.7,257 325.8,265.8 342.6,242.7 315.5,251.5 	"/>
</g>
<g>
	<polygon class="st0" points="298.7,228.4 281.9,251.5 298.7,274.6 325.8,265.8 298.7,256.9 	"/>
</g>
<g>
	<polygon class="st0" points="227.8,315.3 200.6,324.2 183.9,301.1 200.6,278 200.6,306.5 	"/>
</g>
<g>
	<polygon class="st0" points="200.6,278 183.9,301.1 200.6,324.2 227.7,315.3 200.6,306.5 	"/>
</g>
<g>
	<polygon class="st0" points="227.8,315.3 200.6,306.5 200.6,278 227.8,269.2 211,292.3 	"/>
</g>
<g>
	<polygon class="st0" points="227.8,269.2 200.6,278 200.6,306.5 227.8,315.3 211,292.3 	"/>
</g>
<g>
	<polygon class="st0" points="227.8,269.2 211,292.3 227.8,315.3 254.9,306.5 227.8,297.7 	"/>
</g>
<g>
	<polygon class="st0" points="173.5,269.2 146.4,278 146.4,306.5 173.5,315.3 156.7,292.3 	"/>
</g>
<g>
	<polygon class="st0" points="173.5,315.3 156.7,292.2 173.5,269.2 200.6,278 173.5,286.8 	"/>
</g>
<g>
	<polygon class="st0" points="200.6,278 173.5,269.2 156.7,292.2 173.5,315.3 173.5,286.8 	"/>
</g>
<g>
	<polygon class="st0" points="200.6,278 173.5,286.8 173.5,315.3 200.6,324.1 183.9,301.1 	"/>
</g>
<g>
	<polygon class="st0" points="173.5,315.3 146.4,306.5 146.4,278 173.5,269.2 156.7,292.3 	"/>
</g>
<g>
	<polygon class="st0" points="173.5,269.2 146.4,278 146.4,306.5 173.5,315.3 156.7,292.3 	"/>
</g>
<g>
	<polygon class="st0" points="254.8,306.5 227.6,297.7 227.6,269.2 254.8,260.4 238,283.4 	"/>
</g>
<g>
	<polygon class="st0" points="254.8,260.4 227.6,269.2 227.6,297.7 254.8,306.5 238,283.4 	"/>
</g>
<g>
	<polygon class="st0" points="254.8,260.4 238,283.4 254.8,306.5 281.9,297.7 254.8,288.9 	"/>
</g>
<g>
	<polygon class="st0" points="146.4,260.3 119.2,269.2 119.2,297.7 146.4,306.5 129.6,283.4 	"/>
</g>
<g>
	<polygon class="st0" points="146.4,306.5 119.2,297.7 119.2,269.2 146.4,260.4 129.6,283.4 	"/>
</g>
<g>
	<polygon class="st0" points="146.3,260.4 119.2,251.5 102.4,274.6 119.2,297.7 119.2,269.2 	"/>
</g>
<g>
	<polygon class="st0" points="119.2,251.5 92.1,260.4 92.1,288.9 119.2,297.7 102.4,274.6 	"/>
</g>
<g>
	<polygon class="st0" points="119.2,297.7 92.1,288.9 92.1,260.4 119.2,251.6 102.4,274.6 	"/>
</g>
<g>
	<polygon class="st0" points="119.2,251.5 92.1,260.3 92.1,288.8 119.2,297.7 102.4,274.6 	"/>
</g>
<g>
	<polygon class="st0" points="119.2,251.5 92,242.7 75.3,265.8 92,288.8 92,260.3 	"/>
</g>
<g>
	<polygon class="st0" points="58.5,185.6 75.3,162.6 102.4,171.4 102.4,199.9 85.6,176.8 	"/>
</g>
<g>
	<polygon class="st0" points="102.4,199.9 102.4,171.4 75.3,162.6 58.5,185.6 85.6,176.8 	"/>
</g>
<g>
	<polygon class="st0" points="102.4,199.9 85.6,176.8 58.5,185.7 58.5,214.2 75.3,191.1 	"/>
</g>
<g>
	<polygon class="st0" points="58.5,214.2 75.3,191.1 102.4,199.9 102.4,228.4 85.6,205.3 	"/>
</g>
<g>
	<polygon class="st0" points="102.4,228.4 102.4,199.9 75.3,191.1 58.5,214.2 85.6,205.3 	"/>
</g>
<g>
	<polygon class="st0" points="102.4,228.4 85.6,205.3 58.5,214.2 58.5,242.7 75.2,219.6 	"/>
</g>
<g>
	<polygon class="st0" points="102.4,228.4 75.2,219.6 58.5,242.7 75.2,265.8 75.2,237.2 	"/>
</g>
<g>
	<polygon class="st0" points="119.2,251.5 102.4,228.4 75.3,237.2 75.3,265.8 92,242.7 	"/>
</g>
<g>
	<polygon class="st0" points="102.4,171.4 85.6,148.3 58.5,157.1 58.5,185.6 75.3,162.6 	"/>
</g>
<g>
	<polygon class="st0" points="102.4,171.3 102.4,142.8 75.3,134 58.5,157.1 85.6,148.3 	"/>
</g>
<g>
	<polygon class="st0" points="102.4,171.4 119.2,148.3 102.4,125.2 75.3,134 102.4,142.8 	"/>
</g>
<g>
	<polygon class="st0" points="227.6,130.6 254.7,139.4 271.5,116.3 254.7,93.2 254.7,121.8 	"/>
</g>
<g>
	<polygon class="st0" points="173.5,269.2 146.4,260.4 129.6,283.4 146.4,306.5 146.4,278 	"/>
</g>
<g>
	<polygon class="st0" points="281.9,297.7 254.8,288.8 254.8,260.3 281.9,251.5 265.1,274.6 	"/>
</g>
<g>
	<polygon class="st0" points="281.9,251.5 254.8,260.3 254.8,288.8 281.9,297.7 265.1,274.6 	"/>
</g>
<g>
	<polygon class="st0" points="281.9,251.5 265.1,274.6 281.9,297.7 309,288.8 281.9,280 	"/>
</g>
<g>
	<polygon class="st0" points="281.9,251.5 281.9,280 309.1,288.8 325.8,265.8 298.7,274.6 	"/>
</g>
<g>
	<polygon class="st0" points="119.2,148.3 146.3,139.4 146.3,110.9 119.2,102.1 135.9,125.2 	"/>
</g>
<g>
	<polygon class="st0" points="119.1,148.3 135.9,125.2 119.1,102.1 92,110.9 119.1,119.7 	"/>
</g>
<g>
	<polygon class="st0" points="119.2,148.3 119.2,119.8 92,111 75.3,134 102.4,125.2 	"/>
</g>
<g>
	<polygon class="st0" points="146.3,260.3 119.2,251.5 119.2,223 146.3,214.1 129.5,237.2 	"/>
</g>
<g>
	<polygon class="st0" points="227.8,361.5 200.7,370.3 183.9,347.2 200.7,324.2 200.7,352.7 	"/>
</g>
<g>
	<polygon class="st0" points="200.7,324.2 183.9,347.2 200.7,370.3 227.8,361.5 200.7,352.7 	"/>
</g>
<g>
	<polygon class="st0" points="227.8,361.5 200.7,352.7 200.7,324.2 227.8,315.3 211,338.4 	"/>
</g>
<g>
	<polygon class="st0" points="227.8,315.3 200.7,324.2 200.7,352.7 227.8,361.5 211,338.4 	"/>
</g>
<g>
	<polygon class="st0" points="227.8,315.3 211,338.4 227.8,361.5 254.9,352.7 227.8,343.9 	"/>
</g>
<g>
	<polygon class="st0" points="173.6,315.3 146.4,324.1 146.4,352.7 173.6,361.5 156.8,338.4 	"/>
</g>
<g>
	<polygon class="st0" points="173.6,361.5 156.8,338.4 173.6,315.3 200.7,324.1 173.6,333 	"/>
</g>
<g>
	<polygon class="st0" points="200.7,324.1 173.6,315.3 156.8,338.4 173.6,361.5 173.6,333 	"/>
</g>
<g>
	<polygon class="st0" points="200.7,324.1 173.6,333 173.6,361.5 200.7,370.3 183.9,347.2 	"/>
</g>
<g>
	<polygon class="st0" points="173.5,361.5 146.4,352.7 146.4,324.2 173.5,315.3 156.8,338.4 	"/>
</g>
<g>
	<polygon class="st0" points="173.5,315.3 146.4,324.2 146.4,352.7 173.5,361.5 156.8,338.4 	"/>
</g>
<g>
	<polygon class="st0" points="254.8,352.7 227.7,343.9 227.7,315.3 254.8,306.5 238.1,329.6 	"/>
</g>
<g>
	<polygon class="st0" points="254.8,306.5 227.7,315.3 227.7,343.9 254.8,352.7 238.1,329.6 	"/>
</g>
<g>
	<polygon class="st0" points="254.8,306.5 238.1,329.6 254.8,352.7 282,343.9 254.8,335 	"/>
</g>
<g>
	<polygon class="st0" points="146.4,306.5 119.3,315.3 119.3,343.8 146.4,352.7 129.7,329.6 	"/>
</g>
<g>
	<polygon class="st0" points="146.4,352.7 119.3,343.9 119.3,315.3 146.4,306.5 129.7,329.6 	"/>
</g>
<g>
	<polygon class="st0" points="173.6,315.3 146.4,306.5 129.7,329.6 146.4,352.7 146.4,324.1 	"/>
</g>
<g>
	<polygon class="st0" points="282,343.8 254.8,335 254.8,306.5 282,297.7 265.2,320.7 	"/>
</g>
<g>
	<polygon class="st0" points="282,297.7 254.8,306.5 254.8,335 282,343.8 265.2,320.7 	"/>
</g>
<g>
	<polygon class="st0" points="282,297.7 265.2,320.7 282,343.8 309.1,335 282,326.2 	"/>
</g>
<g>
	<polygon class="st0" points="309.2,335 282,326.2 282,297.6 309.2,288.8 292.4,311.9 	"/>
</g>
<g>
	<polygon class="st0" points="309.2,288.8 282,297.6 282,326.2 309.2,335 292.4,311.9 	"/>
</g>
<g>
	<polygon class="st0" points="309.2,288.8 292.4,311.9 309.2,335 336.3,326.2 309.2,317.4 	"/>
</g>
<g>
	<polygon class="st0" points="326,265.8 326,294.3 353.1,303.1 369.9,280.1 342.7,288.9 	"/>
</g>
<g>
	<polygon class="st0" points="325.9,265.8 309.2,288.8 325.9,311.9 353.1,303.1 325.9,294.3 	"/>
</g>
<g>
	<polygon class="st0" points="309.2,288.8 309.2,317.4 336.3,326.2 353.1,303.1 325.9,311.9 	"/>
</g>
<g>
	<polygon class="st0" points="342.6,242.8 342.6,271.3 369.8,280.1 386.5,257 359.4,265.8 	"/>
</g>
<g>
	<polygon class="st0" points="342.6,242.7 325.8,265.8 342.6,288.9 369.7,280.1 342.6,271.2 	"/>
</g>
<g>
	<polygon class="st0" points="386.5,228.4 369.8,251.5 342.6,242.7 342.6,214.1 359.4,237.2 	"/>
</g>
<g>
	<polygon class="st0" points="342.6,214.1 342.6,242.7 369.8,251.5 386.5,228.4 359.4,237.2 	"/>
</g>
<g>
	<polygon class="st0" points="342.6,214.1 359.4,237.2 386.5,228.4 386.5,199.9 369.8,222.9 	"/>
</g>
<g>
	<polygon class="st0" points="386.5,199.9 369.8,223 342.6,214.2 342.6,185.6 359.4,208.7 	"/>
</g>
<g>
	<polygon class="st0" points="342.6,185.6 342.6,214.2 369.8,223 386.5,199.9 359.4,208.7 	"/>
</g>
<g>
	<polygon class="st0" points="342.6,185.6 359.4,208.7 386.5,199.9 386.5,171.4 369.8,194.4 	"/>
</g>
<g>
	<polygon class="st0" points="342.6,242.7 359.4,265.7 386.5,256.9 386.5,228.4 369.8,251.5 	"/>
</g>
<g>
	<polygon class="st0" points="386.5,171.3 369.8,194.4 342.6,185.5 342.6,157 359.4,180.1 	"/>
</g>
<g>
	<polygon class="st0" points="342.6,157 342.6,185.5 369.8,194.4 386.5,171.3 359.4,180.1 	"/>
</g>
<g>
	<polygon class="st0" points="342.6,157 359.4,180.1 386.5,171.3 386.5,142.7 369.8,165.8 	"/>
</g>
<g>
	<polygon class="st0" points="325.8,134.1 352.9,142.9 369.7,119.8 352.9,96.7 352.9,125.2 	"/>
</g>
<g>
	<polygon class="st0" points="342.6,157.1 369.7,166 386.5,142.9 369.7,119.8 369.7,148.3 	"/>
</g>
<g>
	<polygon class="st0" points="325.8,134.1 342.6,157.1 369.7,148.3 369.7,119.8 352.9,142.9 	"/>
</g>
<g>
	<polygon class="st0" points="309,111 336.2,119.8 352.9,96.7 336.2,73.6 336.2,102.1 	"/>
</g>
<g>
	<polygon class="st0" points="309,111 325.8,134 352.9,125.2 352.9,96.7 336.2,119.8 	"/>
</g>
<g>
	<polygon class="st0" points="173.2,38.3 200.3,29.5 217.1,52.5 200.3,75.6 200.3,47.1 	"/>
</g>
<g>
	<polygon class="st0" points="200.3,75.6 217.1,52.5 200.3,29.5 173.2,38.3 200.3,47.1 	"/>
</g>
<g>
	<polygon class="st0" points="173.2,38.3 200.3,47.1 200.3,75.6 173.2,84.4 190,61.4 	"/>
</g>
<g>
	<polygon class="st0" points="173.2,84.4 200.3,75.6 200.3,47.1 173.2,38.3 190,61.4 	"/>
</g>
<g>
	<polygon class="st0" points="173.2,84.4 190,61.4 173.2,38.3 146.1,47.1 173.2,55.9 	"/>
</g>
<g>
	<polygon class="st0" points="227.4,84.4 254.6,75.6 254.6,47.1 227.4,38.3 244.2,61.4 	"/>
</g>
<g>
	<polygon class="st0" points="227.4,38.3 244.2,61.4 227.4,84.5 200.3,75.6 227.4,66.8 	"/>
</g>
<g>
	<polygon class="st0" points="200.3,75.6 227.4,84.5 244.2,61.4 227.4,38.3 227.4,66.8 	"/>
</g>
<g>
	<polygon class="st0" points="200.3,75.6 227.4,66.8 227.4,38.3 200.3,29.5 217.1,52.6 	"/>
</g>
<g>
	<polygon class="st0" points="227.5,38.3 254.6,47.1 254.6,75.6 227.5,84.4 244.2,61.4 	"/>
</g>
<g>
	<polygon class="st0" points="227.5,84.4 254.6,75.6 254.6,47.1 227.5,38.3 244.2,61.4 	"/>
</g>
<g>
	<polygon class="st0" points="146.2,47.1 173.3,55.9 173.3,84.4 146.2,93.3 162.9,70.2 	"/>
</g>
<g>
	<polygon class="st0" points="146.2,93.3 173.3,84.4 173.3,55.9 146.2,47.1 162.9,70.2 	"/>
</g>
<g>
	<polygon class="st0" points="146.2,93.3 162.9,70.2 146.2,47.1 119,55.9 146.2,64.7 	"/>
</g>
<g>
	<polygon class="st0" points="254.6,93.3 281.7,84.5 281.7,55.9 254.6,47.1 271.3,70.2 	"/>
</g>
<g>
	<polygon class="st0" points="254.6,47.1 281.7,55.9 281.7,84.4 254.6,93.3 271.3,70.2 	"/>
</g>
<g>
	<polygon class="st0" points="227.4,84.4 254.6,93.3 271.3,70.2 254.6,47.1 254.6,75.6 	"/>
</g>
<g>
	<polygon class="st0" points="119,56 146.2,64.8 146.2,93.3 119,102.1 135.8,79 	"/>
</g>
<g>
	<polygon class="st0" points="119,102.1 146.2,93.3 146.2,64.8 119,56 135.8,79 	"/>
</g>
<g>
	<polygon class="st0" points="119,102.1 135.8,79 119,56 91.9,64.8 119,73.6 	"/>
</g>
<g>
	<polygon class="st0" points="91.8,64.8 119,73.6 119,102.1 91.8,110.9 108.6,87.9 	"/>
</g>
<g>
	<polygon class="st0" points="91.8,110.9 119,102.1 119,73.6 91.8,64.8 108.6,87.9 	"/>
</g>
<g>
	<polygon class="st0" points="91.8,110.9 108.6,87.9 91.8,64.8 64.7,73.6 91.8,82.4 	"/>
</g>
<g>
	<polygon class="st0" points="75,134 75,105.5 47.9,96.6 31.1,119.7 58.3,110.9 	"/>
</g>
<g>
	<polygon class="st0" points="75.1,134 91.8,110.9 75.1,87.9 47.9,96.7 75.1,105.5 	"/>
</g>
<g>
	<polygon class="st0" points="91.8,110.9 91.8,82.4 64.7,73.6 47.9,96.7 75.1,87.9 	"/>
</g>
<g>
	<polygon class="st0" points="58.4,157 58.4,128.5 31.2,119.7 14.5,142.8 41.6,133.9 	"/>
</g>
<g>
	<polygon class="st0" points="58.4,157.1 75.2,134 58.4,110.9 31.3,119.7 58.4,128.5 	"/>
</g>
<g>
	<polygon class="st0" points="14.5,171.4 31.2,148.3 58.4,157.1 58.4,185.7 41.6,162.6 	"/>
</g>
<g>
	<polygon class="st0" points="58.4,185.6 58.4,157.1 31.2,148.3 14.5,171.4 41.6,162.6 	"/>
</g>
<g>
	<polygon class="st0" points="58.4,185.7 41.6,162.6 14.5,171.4 14.5,199.9 31.2,176.8 	"/>
</g>
<g>
	<polygon class="st0" points="14.5,199.9 31.2,176.8 58.4,185.6 58.4,214.1 41.6,191.1 	"/>
</g>
<g>
	<polygon class="st0" points="58.4,214.1 58.4,185.6 31.2,176.8 14.5,199.9 41.6,191.1 	"/>
</g>
<g>
	<polygon class="st0" points="58.4,214.1 41.6,191.1 14.5,199.9 14.5,228.4 31.2,205.3 	"/>
</g>
<g>
	<polygon class="st0" points="58.4,157.1 41.6,134 14.5,142.9 14.5,171.4 31.2,148.3 	"/>
</g>
<g>
	<polygon class="st0" points="14.5,228.5 31.2,205.4 58.4,214.2 58.4,242.8 41.6,219.7 	"/>
</g>
<g>
	<polygon class="st0" points="58.4,242.8 58.4,214.2 31.2,205.4 14.5,228.5 41.6,219.7 	"/>
</g>
<g>
	<polygon class="st0" points="58.4,242.8 41.6,219.7 14.5,228.5 14.5,257 31.2,234 	"/>
</g>
<g>
	<polygon class="st0" points="75.2,265.7 48.1,256.9 31.3,280 48.1,303.1 48.1,274.5 	"/>
</g>
<g>
	<polygon class="st0" points="58.4,242.6 31.3,233.8 14.5,256.9 31.3,280 31.3,251.5 	"/>
</g>
<g>
	<polygon class="st0" points="75.2,265.7 58.4,242.6 31.3,251.5 31.3,280 48.1,256.9 	"/>
</g>
<g>
	<polygon class="st0" points="92,288.8 64.8,280 48.1,303.1 64.8,326.2 64.8,297.6 	"/>
</g>
<g>
	<polygon class="st0" points="92,288.8 75.2,265.7 48.1,274.6 48.1,303.1 64.8,280 	"/>
</g>
<g>
	<polygon class="st0" points="281.7,102.1 308.8,93.3 308.8,64.8 281.7,56 298.5,79.1 	"/>
</g>
<g>
	<polygon class="st0" points="281.7,56 298.5,79.1 281.7,102.1 254.6,93.3 281.7,84.5 	"/>
</g>
<g>
	<polygon class="st0" points="254.6,93.3 281.7,102.1 298.5,79.1 281.7,56 281.7,84.5 	"/>
</g>
<g>
	<polygon class="st0" points="281.7,56 308.8,64.8 308.8,93.3 281.7,102.1 298.5,79 	"/>
</g>
<g>
	<polygon class="st0" points="281.7,102.1 308.8,93.3 308.8,64.8 281.7,56 298.5,79 	"/>
</g>
<g>
	<polygon class="st0" points="308.8,111 336,102.1 336,73.6 308.8,64.8 325.6,87.9 	"/>
</g>
<g>
	<polygon class="st0" points="308.8,64.8 336,73.6 336,102.1 308.8,110.9 325.6,87.9 	"/>
</g>
<g>
	<polygon class="st0" points="281.7,102.1 308.8,110.9 325.6,87.9 308.8,64.8 308.8,93.3 	"/>
</g>
<g>
	<polygon class="st0" points="119.2,297.7 92.1,306.5 92.1,335 119.2,343.8 102.5,320.8 	"/>
</g>
<g>
	<polygon class="st0" points="119.2,343.8 102.5,320.8 119.2,297.7 146.4,306.5 119.2,315.3 	"/>
</g>
<g>
	<polygon class="st0" points="146.4,306.5 119.2,297.7 102.5,320.8 119.2,343.8 119.2,315.3 	"/>
</g>
<g>
	<polygon class="st0" points="119.2,343.9 92.1,335 92.1,306.5 119.2,297.7 102.5,320.8 	"/>
</g>
<g>
	<polygon class="st0" points="119.2,297.7 92.1,306.5 92.1,335 119.2,343.9 102.5,320.8 	"/>
</g>
<g>
	<polygon class="st0" points="92.1,288.9 65,297.7 65,326.2 92.1,335 75.3,311.9 	"/>
</g>
<g>
	<polygon class="st0" points="92.1,335 65,326.2 65,297.7 92.1,288.9 75.3,312 	"/>
</g>
<g>
	<polygon class="st0" points="119.2,297.7 92.1,288.9 75.3,312 92.1,335 92.1,306.5 	"/>
</g>
</svg>
