<?xml version="1.0" encoding="iso-8859-1"?>
<!-- Generator: Adobe Illustrator 23.0.6, SVG Export Plug-In . SVG Version: 6.00 Build 0)  -->
<svg version="1.1" id="&#x30EC;&#x30A4;&#x30E4;&#x30FC;_1"
         xmlns="http://www.w3.org/2000/svg" xmlns:xlink="http://www.w3.org/1999/xlink" x="0px" y="0px" viewBox="0 0 400 400"
         style="enable-background:new 0 0 400 400;" xml:space="preserve">
<polygon style="fill:none;stroke:#7E8487;stroke-width:3.263;stroke-linecap:round;stroke-linejoin:round;stroke-miterlimit:10;" points="
        199.947,355.468 244.815,367.49 244.829,367.482 289.697,355.46 289.698,355.463 244.831,343.442 244.816,343.45 199.948,355.472
        "/>
<polygon style="fill:none;stroke:#7E8487;stroke-width:3.263;stroke-linecap:round;stroke-linejoin:round;stroke-miterlimit:10;" points="
        155.003,367.506 199.871,379.528 199.885,379.52 244.753,367.498 244.754,367.501 199.887,355.48 199.872,355.488 155.004,367.51
        "/>
<polygon style="fill:none;stroke:#7E8487;stroke-width:3.263;stroke-linecap:round;stroke-linejoin:round;stroke-miterlimit:10;" points="
        200.1,355.468 155.232,367.49 155.218,367.482 110.35,355.46 110.349,355.463 155.216,343.442 155.231,343.45 200.099,355.472 "/>
<polyline style="fill:none;stroke:#7E8487;stroke-width:3.263;stroke-linecap:round;stroke-linejoin:round;stroke-miterlimit:10;" points="
        310.55,277.868 355.418,289.89 322.573,322.735 322.549,322.667 277.686,310.726 310.531,277.88 "/>
<rect x="327.728" y="193.261" transform="matrix(0.2588 -0.9659 0.9659 0.2588 51.0094 499.4487)" style="fill:none;stroke:#7E8487;stroke-width:3.263;stroke-linecap:round;stroke-linejoin:round;stroke-miterlimit:10;" width="46.451" height="46.45"/>
<polygon style="fill:none;stroke:#7E8487;stroke-width:3.263;stroke-linecap:round;stroke-linejoin:round;stroke-miterlimit:10;" points="
        277.74,65.414 310.586,98.26 310.602,98.259 355.469,110.282 355.468,110.286 322.623,77.44 322.606,77.441 277.739,65.419 "/>
<polyline style="fill:none;stroke:#7E8487;stroke-width:3.263;stroke-linecap:round;stroke-linejoin:round;stroke-miterlimit:10;" points="
        322.546,143.15 310.524,98.283 355.392,110.304 355.344,110.359 367.434,155.182 322.566,143.16 "/>
<polyline style="fill:none;stroke:#7E8487;stroke-width:3.263;stroke-linecap:round;stroke-linejoin:round;stroke-miterlimit:10;" points="
        334.574,188.022 322.551,143.155 367.42,155.177 367.372,155.232 379.462,200.055 334.594,188.032 "/>
<rect x="315.8" y="238.21" transform="matrix(0.2588 -0.9659 0.9659 0.2588 -1.249 521.2428)" style="fill:none;stroke:#7E8487;stroke-width:3.263;stroke-linecap:round;stroke-linejoin:round;stroke-miterlimit:10;" width="46.451" height="46.45"/>
<polyline style="fill:none;stroke:#7E8487;stroke-width:3.263;stroke-linecap:round;stroke-linejoin:round;stroke-miterlimit:10;" points="
        89.497,277.868 44.629,289.89 77.474,322.735 77.498,322.667 122.361,310.726 89.516,277.88 "/>
<polyline style="fill:none;stroke:#7E8487;stroke-width:3.263;stroke-linecap:round;stroke-linejoin:round;stroke-miterlimit:10;" points="
        20.648,200.063 32.671,244.93 77.538,232.909 65.516,188.041 20.648,200.063 "/>
<polygon style="fill:none;stroke:#7E8487;stroke-width:3.263;stroke-linecap:round;stroke-linejoin:round;stroke-miterlimit:10;" points="
        122.307,65.414 89.461,98.26 89.445,98.259 44.578,110.282 44.579,110.286 77.424,77.44 77.441,77.441 122.308,65.419 "/>
<polyline style="fill:none;stroke:#7E8487;stroke-width:3.263;stroke-linecap:round;stroke-linejoin:round;stroke-miterlimit:10;" points="
        77.501,143.15 89.523,98.283 44.655,110.304 44.703,110.359 32.613,155.182 77.48,143.16 "/>
<line style="fill:none;stroke:#7E8487;stroke-width:3.263;stroke-linecap:round;stroke-linejoin:round;stroke-miterlimit:10;" x1="20.585" y1="200.055" x2="65.452" y2="188.032"/>
<polyline style="fill:none;stroke:#7E8487;stroke-width:3.263;stroke-linecap:round;stroke-linejoin:round;stroke-miterlimit:10;" points="
        65.473,188.022 77.496,143.155 32.627,155.177 32.675,155.232 20.585,200.055 "/>
<rect x="37.796" y="238.21" transform="matrix(0.9659 -0.2588 0.2588 0.9659 -65.5863 24.7022)" style="fill:none;stroke:#7E8487;stroke-width:3.263;stroke-linecap:round;stroke-linejoin:round;stroke-miterlimit:10;" width="46.45" height="46.451"/>
<polygon style="fill:none;stroke:#7E8487;stroke-width:3.263;stroke-linecap:round;stroke-linejoin:round;stroke-miterlimit:10;" points="
        244.893,32.573 277.739,65.419 277.755,65.418 322.623,77.44 322.622,77.445 289.777,44.599 289.76,44.6 244.892,32.577 "/>
<polyline style="fill:none;stroke:#7E8487;stroke-width:3.263;stroke-linecap:round;stroke-linejoin:round;stroke-miterlimit:10;" points="
        289.732,355.468 244.865,343.445 277.71,310.6 277.733,310.668 322.596,322.609 289.751,355.455 "/>
<polygon style="fill:none;stroke:#7E8487;stroke-width:3.263;stroke-linecap:round;stroke-linejoin:round;stroke-miterlimit:10;" points="
        155.154,32.573 122.308,65.419 122.292,65.418 77.424,77.44 77.425,77.445 110.27,44.599 110.287,44.6 155.155,32.577 "/>
<polyline style="fill:none;stroke:#7E8487;stroke-width:3.263;stroke-linecap:round;stroke-linejoin:round;stroke-miterlimit:10;" points="
        110.315,355.468 155.182,343.445 122.337,310.6 122.314,310.668 77.451,322.609 110.296,355.455 "/>
<polygon style="fill:none;stroke:#7E8487;stroke-width:3.263;stroke-linecap:round;stroke-linejoin:round;stroke-miterlimit:10;" points="
        244.899,32.63 200.031,20.607 200.017,20.616 155.149,32.638 155.148,32.634 200.015,44.657 200.03,44.648 244.898,32.625 "/>
<polygon style="fill:none;stroke:#7E8487;stroke-width:3.263;stroke-linecap:round;stroke-linejoin:round;" points="
        200.006,355.447 212.028,310.58 212.02,310.565 199.998,265.697 200.001,265.696 187.98,310.563 187.988,310.578 200.01,355.446 "/>
<polyline style="fill:none;stroke:#7E8487;stroke-width:3.263;stroke-linecap:round;stroke-linejoin:round;" points="
        122.375,155.182 89.529,188.027 77.507,143.159 77.578,143.173 110.35,110.292 122.373,155.159 "/>
<rect x="176.793" y="209.673" transform="matrix(0.7071 -0.7071 0.7071 0.7071 -106.1002 209.6485)" style="fill:none;stroke:#7E8487;stroke-width:3.263;stroke-linecap:round;stroke-linejoin:round;" width="46.451" height="46.451"/>
<polygon style="fill:none;stroke:#7E8487;stroke-width:3.263;stroke-linecap:round;stroke-linejoin:round;" points="
        200.007,355.467 187.985,310.599 187.971,310.591 155.126,277.745 155.128,277.741 167.151,322.61 167.165,322.618 200.01,355.464
        "/>
<polyline style="fill:none;stroke:#7E8487;stroke-width:3.263;stroke-linecap:round;stroke-linejoin:round;" points="
        200.002,265.696 187.979,310.563 155.134,277.718 155.202,277.695 167.143,232.832 199.989,265.677 "/>
<polyline style="fill:none;stroke:#7E8487;stroke-width:3.263;stroke-linecap:round;stroke-linejoin:round;" points="
        167.178,232.998 155.156,277.866 122.311,245.021 122.379,244.997 134.32,200.135 167.166,232.98 "/>
<rect x="82.704" y="193.423" transform="matrix(0.2588 -0.9659 0.9659 0.2588 -130.7535 262.8944)" style="fill:none;stroke:#7E8487;stroke-width:3.263;stroke-linecap:round;stroke-linejoin:round;" width="46.451" height="46.45"/>
<polyline style="fill:none;stroke:#7E8487;stroke-width:3.263;stroke-linecap:round;stroke-linejoin:round;" points="
        155.158,122.348 167.18,167.215 122.312,155.194 122.36,155.139 110.27,110.316 155.137,122.338 "/>
<polyline style="fill:none;stroke:#7E8487;stroke-width:3.263;stroke-linecap:round;stroke-linejoin:round;" points="
        122.294,244.848 134.316,289.716 89.448,277.694 89.496,277.639 77.405,232.816 122.273,244.838 "/>
<polygon style="fill:none;stroke:#7E8487;stroke-width:3.263;stroke-linecap:round;stroke-linejoin:round;" points="
        167.147,322.708 155.124,277.84 155.11,277.832 122.265,244.986 122.268,244.983 134.29,289.851 134.305,289.859 167.15,322.705 "/>
<polygon style="fill:none;stroke:#7E8487;stroke-width:3.263;stroke-linecap:round;stroke-linejoin:round;" points="77.514,232.833
        89.536,187.966 89.528,187.951 77.506,143.083 77.509,143.082 65.488,187.949 65.496,187.964 77.518,232.832 "/>
<polygon style="fill:none;stroke:#7E8487;stroke-width:3.263;stroke-linecap:round;stroke-linejoin:round;" points="
        200.119,200.144 188.097,155.277 188.082,155.269 155.237,122.423 155.24,122.419 167.262,167.287 167.277,167.296 200.122,200.141
        "/>
<rect x="143.9" y="176.82" transform="matrix(0.7071 -0.7071 0.7071 0.7071 -92.5037 176.7675)" style="fill:none;stroke:#7E8487;stroke-width:3.263;stroke-linecap:round;stroke-linejoin:round;" width="46.451" height="46.451"/>
<polyline style="fill:none;stroke:#7E8487;stroke-width:3.263;stroke-linecap:round;stroke-linejoin:round;" points="
        122.303,155.288 167.17,167.31 134.325,200.155 134.301,200.087 89.439,188.146 122.284,155.3 "/>
<polyline style="fill:none;stroke:#7E8487;stroke-width:3.263;stroke-linecap:round;stroke-linejoin:round;" points="
        277.673,155.182 310.518,188.027 322.54,143.159 322.469,143.173 289.697,110.292 277.674,155.159 "/>
<polygon style="fill:none;stroke:#7E8487;stroke-width:3.263;stroke-linecap:round;stroke-linejoin:round;" points="200.04,355.467
        212.062,310.599 212.076,310.591 244.921,277.745 244.919,277.741 232.896,322.61 232.882,322.618 200.037,355.464 "/>
<polyline style="fill:none;stroke:#7E8487;stroke-width:3.263;stroke-linecap:round;stroke-linejoin:round;" points="
        200.045,265.696 212.068,310.563 244.913,277.718 244.845,277.695 232.904,232.832 200.058,265.677 "/>
<polyline style="fill:none;stroke:#7E8487;stroke-width:3.263;stroke-linecap:round;stroke-linejoin:round;" points="
        232.869,232.998 244.891,277.866 277.736,245.021 277.668,244.997 265.727,200.135 232.881,232.98 "/>
<rect x="270.893" y="193.423" transform="matrix(0.9659 -0.2588 0.2588 0.9659 -46.0515 83.5069)" style="fill:none;stroke:#7E8487;stroke-width:3.263;stroke-linecap:round;stroke-linejoin:round;" width="46.45" height="46.451"/>
<polyline style="fill:none;stroke:#7E8487;stroke-width:3.263;stroke-linecap:round;stroke-linejoin:round;" points="
        244.889,122.348 232.867,167.215 277.735,155.194 277.687,155.139 289.777,110.316 244.909,122.338 "/>
<polyline style="fill:none;stroke:#7E8487;stroke-width:3.263;stroke-linecap:round;stroke-linejoin:round;" points="
        277.753,244.848 265.731,289.716 310.599,277.694 310.551,277.639 322.641,232.816 277.774,244.838 "/>
<polygon style="fill:none;stroke:#7E8487;stroke-width:3.263;stroke-linecap:round;stroke-linejoin:round;" points="232.9,322.708
        244.923,277.84 244.937,277.832 277.782,244.986 277.779,244.983 265.757,289.851 265.742,289.859 232.897,322.705 "/>
<polygon style="fill:none;stroke:#7E8487;stroke-width:3.263;stroke-linecap:round;stroke-linejoin:round;" points="
        322.533,232.833 310.511,187.966 310.519,187.951 322.541,143.083 322.538,143.082 334.559,187.949 334.551,187.964
        322.529,232.832 "/>
<polygon style="fill:none;stroke:#7E8487;stroke-width:3.263;stroke-linecap:round;stroke-linejoin:round;" points="
        199.928,200.144 211.95,155.277 211.965,155.269 244.81,122.423 244.807,122.419 232.785,167.287 232.77,167.296 199.925,200.141
        "/>
<rect x="209.696" y="176.82" transform="matrix(0.7071 -0.7071 0.7071 0.7071 -73.2324 223.2923)" style="fill:none;stroke:#7E8487;stroke-width:3.263;stroke-linecap:round;stroke-linejoin:round;" width="46.451" height="46.451"/>
<polyline style="fill:none;stroke:#7E8487;stroke-width:3.263;stroke-linecap:round;stroke-linejoin:round;" points="
        277.744,155.288 232.877,167.31 265.722,200.155 265.745,200.087 310.608,188.146 277.763,155.3 "/>
<polygon style="fill:none;stroke:#7E8487;stroke-width:3.263;stroke-linecap:round;stroke-linejoin:round;stroke-miterlimit:10;" points="
        77.394,143.181 110.24,110.335 110.239,110.318 122.261,65.451 122.266,65.452 89.42,98.297 89.421,98.314 77.398,143.181 "/>
<polygon style="fill:none;stroke:#7E8487;stroke-width:3.263;stroke-linecap:round;stroke-linejoin:round;stroke-miterlimit:10;" points="
        199.992,355.441 167.146,322.595 167.13,322.596 122.262,310.574 122.263,310.569 155.108,343.415 155.126,343.414 199.993,355.437
        "/>
<polygon style="fill:none;stroke:#7E8487;stroke-width:3.263;stroke-linecap:round;stroke-linejoin:round;stroke-miterlimit:10;" points="
        167.13,322.596 134.284,289.75 134.268,289.751 89.4,277.728 89.401,277.724 122.246,310.57 122.263,310.569 167.131,322.591 "/>
<polygon style="fill:none;stroke:#7E8487;stroke-width:3.263;stroke-linecap:round;stroke-linejoin:round;stroke-miterlimit:10;" points="
        200.181,200.166 212.203,155.298 212.195,155.284 200.173,110.416 200.176,110.415 188.155,155.282 188.163,155.296
        200.185,200.165 "/>
<polyline style="fill:none;stroke:#7E8487;stroke-width:3.263;stroke-linecap:round;stroke-linejoin:round;stroke-miterlimit:10;" points="
        200.148,110.461 188.125,155.328 155.28,122.483 155.348,122.46 167.289,77.597 200.135,110.442 "/>
<rect x="115.555" y="70.708" transform="matrix(0.2588 -0.9659 0.9659 0.2588 12.1286 203.6725)" style="fill:none;stroke:#7E8487;stroke-width:3.263;stroke-linecap:round;stroke-linejoin:round;stroke-miterlimit:10;" width="46.451" height="46.45"/>
<polygon style="fill:none;stroke:#7E8487;stroke-width:3.263;stroke-linecap:round;stroke-linejoin:round;stroke-miterlimit:10;" points="
        322.653,143.181 289.807,110.335 289.808,110.318 277.786,65.451 277.781,65.452 310.627,98.297 310.626,98.314 322.649,143.181 "/>
<polygon style="fill:none;stroke:#7E8487;stroke-width:3.263;stroke-linecap:round;stroke-linejoin:round;stroke-miterlimit:10;" points="
        200.055,355.441 232.901,322.595 232.917,322.596 277.785,310.574 277.784,310.569 244.939,343.415 244.921,343.414
        200.054,355.437 "/>
<polygon style="fill:none;stroke:#7E8487;stroke-width:3.263;stroke-linecap:round;stroke-linejoin:round;stroke-miterlimit:10;" points="
        232.917,322.596 265.763,289.75 265.779,289.751 310.647,277.728 310.646,277.724 277.801,310.57 277.784,310.569 232.916,322.591
        "/>
<polyline style="fill:none;stroke:#7E8487;stroke-width:3.263;stroke-linecap:round;stroke-linejoin:round;stroke-miterlimit:10;" points="
        199.899,110.461 211.922,155.328 244.767,122.483 244.699,122.46 232.758,77.597 199.912,110.442 "/>
<rect x="238.041" y="70.708" transform="matrix(0.9659 -0.2588 0.2588 0.9659 -15.4093 70.8226)" style="fill:none;stroke:#7E8487;stroke-width:3.263;stroke-linecap:round;stroke-linejoin:round;stroke-miterlimit:10;" width="46.45" height="46.451"/>
<rect x="176.724" y="54.332" transform="matrix(0.7071 -0.7071 0.7071 0.7071 3.7227 164.1014)" style="fill:none;stroke:#7E8487;stroke-width:3.263;stroke-linecap:round;stroke-linejoin:round;stroke-miterlimit:10;" width="46.451" height="46.451"/>
<polyline style="fill:none;stroke:#7E8487;stroke-width:3.263;stroke-linecap:round;stroke-linejoin:round;stroke-miterlimit:10;" points="
        155.148,32.634 200.015,44.656 167.17,77.501 167.147,77.434 122.284,65.493 155.129,32.647 "/>
<polyline style="fill:none;stroke:#7E8487;stroke-width:3.263;stroke-linecap:round;stroke-linejoin:round;stroke-miterlimit:10;" points="
        244.899,32.634 200.032,44.656 232.877,77.501 232.9,77.434 277.763,65.493 244.918,32.647 "/>
</svg>
