<?xml version="1.0" encoding="utf-8"?>
<!-- Generator: Adobe Illustrator 25.0.1, SVG Export Plug-In . SVG Version: 6.00 Build 0)  -->
<svg version="1.1" id="レイヤー_1" xmlns="http://www.w3.org/2000/svg" xmlns:xlink="http://www.w3.org/1999/xlink" x="0px"
	 y="0px" viewBox="0 0 490.4 400" style="enable-background:new 0 0 490.4 400;" xml:space="preserve">
<style type="text/css">
	.st0{fill:#FFFFFF;stroke:#A8A9A9;stroke-width:0.25;stroke-linecap:round;stroke-linejoin:round;stroke-miterlimit:10;}
	.st1{fill:#FFFFFF;stroke:#231815;stroke-width:0.5;stroke-linecap:round;stroke-linejoin:round;stroke-miterlimit:10;}
</style>
<polygon class="st0" points="27,-12.6 3.1,-12.7 15,8 "/>
<polygon class="st0" points="3.1,-12.7 15,8 -1.3,3.6 "/>
<polygon class="st0" points="15,8 -5.7,19.9 -1.3,3.6 "/>
<polygon class="st0" points="-5.7,19.9 -17.5,-0.8 -1.3,3.6 "/>
<polygon class="st0" points="-17.5,-0.8 3.1,-12.7 -1.3,3.6 "/>
<polygon class="st0" points="15,8 14.9,31.8 -5.7,19.9 "/>
<polygon class="st0" points="14.9,31.8 -5.7,19.9 -1.4,36.2 "/>
<polygon class="st0" points="35.6,20 14.9,31.8 15,8 "/>
<polygon class="st0" points="-5.7,19.9 -17.7,40.5 -1.4,36.2 "/>
<polygon class="st0" points="-17.7,40.5 2.9,52.5 -1.4,36.2 "/>
<polygon class="st0" points="2.9,52.5 14.9,31.8 -1.4,36.2 "/>
<polygon class="st0" points="47.5,-0.6 27,-12.6 31.3,3.7 "/>
<polygon class="st0" points="27,-12.6 15,8 31.3,3.7 "/>
<polygon class="st0" points="15,8 35.6,20 31.3,3.7 "/>
<polygon class="st0" points="35.6,20 47.5,-0.6 31.3,3.7 "/>
<polygon class="st0" points="59.4,20.1 35.6,20 47.5,40.7 "/>
<polygon class="st0" points="35.6,20 47.5,40.7 31.1,36.3 "/>
<polygon class="st0" points="47.5,-0.6 35.6,20 59.4,20.1 "/>
<polygon class="st0" points="47.5,40.7 26.7,52.6 31.1,36.3 "/>
<polygon class="st0" points="26.7,52.6 14.9,31.8 31.1,36.3 "/>
<polygon class="st0" points="14.9,31.8 35.6,20 31.1,36.3 "/>
<polygon class="st0" points="47.5,40.7 47.4,64.5 26.7,52.6 "/>
<polygon class="st0" points="47.4,64.5 26.7,52.6 31,68.9 "/>
<polygon class="st0" points="68,52.7 47.4,64.5 47.5,40.7 "/>
<polygon class="st0" points="26.7,52.6 14.8,73.2 31,68.9 "/>
<polygon class="st0" points="14.8,73.2 35.3,85.1 31,68.9 "/>
<polygon class="st0" points="35.3,85.1 47.4,64.5 31,68.9 "/>
<polygon class="st0" points="92.2,-12.4 68.3,-12.5 80.2,8.2 "/>
<polygon class="st0" points="68.3,-12.5 80.2,8.2 63.8,3.8 "/>
<polygon class="st0" points="80.2,8.2 59.4,20.1 63.8,3.8 "/>
<polygon class="st0" points="59.4,20.1 47.5,-0.6 63.8,3.8 "/>
<polygon class="st0" points="47.5,-0.6 68.3,-12.5 63.8,3.8 "/>
<polygon class="st0" points="80.2,8.2 80.1,32 59.4,20.1 "/>
<polygon class="st0" points="80.1,32 59.4,20.1 63.7,36.4 "/>
<polygon class="st0" points="100.7,20.2 80.1,32 80.2,8.2 "/>
<polygon class="st0" points="59.4,20.1 47.5,40.7 63.7,36.4 "/>
<polygon class="st0" points="47.5,40.7 68,52.7 63.7,36.4 "/>
<polygon class="st0" points="68,52.7 80.1,32 63.7,36.4 "/>
<polygon class="st0" points="91.9,52.8 68,52.7 80,73.4 "/>
<polygon class="st0" points="68,52.7 80,73.4 63.6,69 "/>
<polygon class="st0" points="80.1,32 68,52.7 91.9,52.8 "/>
<polygon class="st0" points="80,73.4 59.3,85.2 63.6,69 "/>
<polygon class="st0" points="59.3,85.2 47.4,64.5 63.6,69 "/>
<polygon class="st0" points="47.4,64.5 68,52.7 63.6,69 "/>
<polygon class="st0" points="80,73.4 79.9,97.2 59.3,85.2 "/>
<polygon class="st0" points="79.9,97.2 59.3,85.2 63.6,101.5 "/>
<polygon class="st0" points="100.5,85.4 79.9,97.2 80,73.4 "/>
<polygon class="st0" points="59.3,85.2 47.3,105.9 63.6,101.5 "/>
<polygon class="st0" points="47.3,105.9 67.9,117.8 63.6,101.5 "/>
<polygon class="st0" points="67.9,117.8 79.9,97.2 63.6,101.5 "/>
<polygon class="st0" points="124.6,20.3 100.7,20.2 112.7,40.9 "/>
<polygon class="st0" points="112.7,-0.4 100.7,20.2 124.6,20.3 "/>
<polygon class="st0" points="112.7,40.9 112.6,64.7 91.9,52.8 "/>
<polygon class="st0" points="133.2,52.9 112.6,64.7 112.7,40.9 "/>
<polygon class="st0" points="124.4,85.4 100.5,85.4 112.4,106.1 "/>
<polygon class="st0" points="112.6,64.7 100.5,85.4 124.4,85.4 "/>
<polygon class="st0" points="112.4,106.1 112.4,129.9 91.8,117.9 "/>
<polygon class="st0" points="133,118.1 112.4,129.9 112.4,106.1 "/>
<polygon class="st0" points="157.1,52.9 133.2,52.9 145.1,73.6 "/>
<polygon class="st0" points="133.2,52.9 145.1,73.6 128.8,69.2 "/>
<polygon class="st0" points="145.2,32.3 133.2,52.9 157.1,52.9 "/>
<polygon class="st0" points="145.1,73.6 124.4,85.4 128.8,69.2 "/>
<polygon class="st0" points="124.4,85.4 112.6,64.7 128.8,69.2 "/>
<polygon class="st0" points="112.6,64.7 133.2,52.9 128.8,69.2 "/>
<polygon class="st0" points="145.1,73.6 145.1,97.4 124.4,85.4 "/>
<polygon class="st0" points="145.1,97.4 124.4,85.4 128.7,101.8 "/>
<polygon class="st0" points="165.7,85.6 145.1,97.4 145.1,73.6 "/>
<polygon class="st0" points="124.4,85.4 112.4,106.1 128.7,101.8 "/>
<polygon class="st0" points="112.4,106.1 133,118.1 128.7,101.8 "/>
<polygon class="st0" points="133,118.1 145.1,97.4 128.7,101.8 "/>
<polygon class="st0" points="156.9,118.1 133,118.1 144.9,138.8 "/>
<polygon class="st0" points="133,118.1 144.9,138.8 128.6,134.4 "/>
<polygon class="st0" points="145.1,97.4 133,118.1 156.9,118.1 "/>
<polygon class="st0" points="144.9,138.8 124.2,150.5 128.6,134.4 "/>
<polygon class="st0" points="124.2,150.5 112.4,129.9 128.6,134.4 "/>
<polygon class="st0" points="112.4,129.9 133,118.1 128.6,134.4 "/>
<polygon class="st0" points="144.9,138.8 144.9,162.6 124.2,150.5 "/>
<polygon class="st0" points="144.9,162.6 124.2,150.5 128.6,166.9 "/>
<polygon class="st0" points="165.5,150.8 144.9,162.6 144.9,138.8 "/>
<polygon class="st0" points="124.2,150.5 112.2,171.3 128.6,166.9 "/>
<polygon class="st0" points="112.2,171.3 132.9,183.2 128.6,166.9 "/>
<polygon class="st0" points="132.9,183.2 144.9,162.6 128.6,166.9 "/>
<polygon class="st0" points="189.6,85.6 165.7,85.6 177.6,106.2 "/>
<polygon class="st0" points="165.7,85.6 177.6,106.2 161.3,101.9 "/>
<polygon class="st0" points="177.7,65 165.7,85.6 189.6,85.6 "/>
<polygon class="st0" points="177.6,106.2 156.9,118.1 161.3,101.9 "/>
<polygon class="st0" points="156.9,118.1 145.1,97.4 161.3,101.9 "/>
<polygon class="st0" points="145.1,97.4 165.7,85.6 161.3,101.9 "/>
<polygon class="st0" points="177.6,106.2 177.6,130.1 156.9,118.1 "/>
<polygon class="st0" points="177.6,130.1 156.9,118.1 161.2,134.5 "/>
<polygon class="st0" points="198.2,118.3 177.5,130 177.6,106.2 "/>
<polygon class="st0" points="156.9,118.1 144.9,138.8 161.2,134.5 "/>
<polygon class="st0" points="144.9,138.8 165.5,150.8 161.2,134.5 "/>
<polygon class="st0" points="165.5,150.8 177.6,130.1 161.2,134.5 "/>
<polygon class="st0" points="189.4,150.8 165.5,150.8 177.4,171.4 "/>
<polygon class="st0" points="165.5,150.8 177.4,171.4 161.1,167 "/>
<polygon class="st0" points="177.6,130.1 165.5,150.8 189.4,150.8 "/>
<polygon class="st0" points="177.4,171.4 156.7,183.2 161.1,167 "/>
<polygon class="st0" points="156.7,183.2 144.9,162.6 161.1,167 "/>
<polygon class="st0" points="144.9,162.6 165.5,150.8 161.1,167 "/>
<polygon class="st0" points="177.4,171.4 177.3,195.2 156.7,183.2 "/>
<polygon class="st0" points="177.3,195.2 156.7,183.2 161,199.5 "/>
<polygon class="st0" points="198,183.5 177.3,195.2 177.4,171.4 "/>
<polygon class="st0" points="156.7,183.2 144.7,203.9 161,199.5 "/>
<polygon class="st0" points="144.7,203.9 165.4,215.9 161,199.5 "/>
<polygon class="st0" points="165.4,215.9 177.3,195.2 161,199.5 "/>
<polygon class="st0" points="222.1,118.3 198.2,118.3 210.1,138.9 "/>
<polygon class="st0" points="198.2,118.3 210.1,138.9 193.8,134.5 "/>
<polygon class="st0" points="210.1,97.6 198.2,118.3 222.1,118.3 "/>
<polygon class="st0" points="210.1,138.9 189.4,150.8 193.8,134.5 "/>
<polygon class="st0" points="189.4,150.8 177.6,130.1 193.8,134.5 "/>
<polygon class="st0" points="177.6,130.1 198.2,118.3 193.8,134.5 "/>
<polygon class="st0" points="210.1,138.9 210,162.7 189.4,150.8 "/>
<polygon class="st0" points="210,162.7 189.4,150.8 193.7,167.1 "/>
<polygon class="st0" points="230.7,151 210,162.7 210.1,138.9 "/>
<polygon class="st0" points="189.4,150.8 177.4,171.4 193.7,167.1 "/>
<polygon class="st0" points="177.4,171.4 198,183.5 193.7,167.1 "/>
<polygon class="st0" points="198,183.5 210,162.7 193.7,167.1 "/>
<polygon class="st0" points="3,52.4 -17.8,64.3 -17.7,40.5 "/>
<polygon class="st0" points="2.8,117.6 -18,129.5 -17.9,105.6 "/>
<polygon class="st0" points="26.8,52.5 3,52.4 14.8,73.1 "/>
<polygon class="st0" points="3,52.4 14.8,73.2 -1.5,68.7 "/>
<polygon class="st0" points="14.9,31.8 3,52.4 26.8,52.5 "/>
<polygon class="st0" points="14.8,73.2 -5.9,85 -1.5,68.7 "/>
<polygon class="st0" points="-5.9,85 -17.7,64.4 -1.5,68.7 "/>
<polygon class="st0" points="-17.7,64.4 3,52.4 -1.5,68.7 "/>
<polygon class="st0" points="14.8,73.2 14.7,97 -5.9,85 "/>
<polygon class="st0" points="14.7,97 -5.9,85 -1.6,101.3 "/>
<polygon class="st0" points="35.5,85.1 14.7,97 14.8,73.2 "/>
<polygon class="st0" points="-5.9,85 -17.9,105.6 -1.6,101.3 "/>
<polygon class="st0" points="-17.9,105.6 2.8,117.6 -1.6,101.3 "/>
<polygon class="st0" points="2.8,117.6 14.7,97 -1.6,101.3 "/>
<polygon class="st0" points="26.6,117.7 2.8,117.6 14.6,138.3 "/>
<polygon class="st0" points="2.8,117.6 14.6,138.3 -1.7,133.9 "/>
<polygon class="st0" points="14.7,97 2.8,117.6 26.6,117.7 "/>
<polygon class="st0" points="14.6,138.3 -6.1,150.2 -1.7,133.9 "/>
<polygon class="st0" points="-6.1,150.2 -18,129.5 -1.7,133.9 "/>
<polygon class="st0" points="-18,129.5 2.8,117.6 -1.7,133.9 "/>
<polygon class="st0" points="14.6,138.3 14.5,162.2 -6.1,150.2 "/>
<polygon class="st0" points="14.5,162.2 -6.1,150.2 -1.8,166.5 "/>
<polygon class="st0" points="35.2,150.3 14.5,162.2 14.6,138.3 "/>
<polygon class="st0" points="-6.1,150.2 -18.1,170.8 -1.8,166.5 "/>
<polygon class="st0" points="-18.1,170.8 2.5,182.8 -1.8,166.5 "/>
<polygon class="st0" points="2.5,182.8 14.5,162.2 -1.8,166.5 "/>
<polygon class="st0" points="59.3,85.2 35.5,85.1 47.3,105.8 "/>
<polygon class="st0" points="35.5,85.1 47.3,105.8 31,101.4 "/>
<polygon class="st0" points="47.4,64.5 35.4,85.1 59.3,85.2 "/>
<polygon class="st0" points="47.3,105.8 26.6,117.7 31,101.4 "/>
<polygon class="st0" points="26.6,117.7 14.7,97 31,101.4 "/>
<polygon class="st0" points="14.7,97 35.5,85.1 31,101.4 "/>
<polygon class="st0" points="47.3,105.8 47.2,129.7 26.6,117.7 "/>
<polygon class="st0" points="47.2,129.7 26.6,117.7 30.9,134 "/>
<polygon class="st0" points="67.9,117.8 47.2,129.7 47.3,105.9 "/>
<polygon class="st0" points="26.6,117.7 14.6,138.3 30.9,134 "/>
<polygon class="st0" points="14.6,138.3 35.2,150.3 30.9,134 "/>
<polygon class="st0" points="35.2,150.3 47.2,129.7 30.9,134 "/>
<polygon class="st0" points="59.1,150.4 35.2,150.3 47.1,171 "/>
<polygon class="st0" points="35.2,150.3 47.1,171 30.8,166.6 "/>
<polygon class="st0" points="47.2,129.7 35.2,150.3 59.1,150.4 "/>
<polygon class="st0" points="47.1,171 26.4,182.9 30.8,166.6 "/>
<polygon class="st0" points="26.4,182.9 14.5,162.2 30.8,166.6 "/>
<polygon class="st0" points="14.5,162.2 35.2,150.3 30.8,166.6 "/>
<polygon class="st0" points="47.1,171 47.1,194.8 26.4,182.9 "/>
<polygon class="st0" points="47.1,194.8 26.4,182.9 30.7,199.2 "/>
<polygon class="st0" points="67.7,183 47,194.9 47.1,171 "/>
<polygon class="st0" points="26.4,182.9 14.4,203.5 30.7,199.2 "/>
<polygon class="st0" points="14.4,203.5 35,215.5 30.7,199.2 "/>
<polygon class="st0" points="35,215.5 47.1,194.8 30.7,199.2 "/>
<polygon class="st0" points="91.8,117.9 67.9,117.8 79.8,138.5 "/>
<polygon class="st0" points="67.9,117.8 79.8,138.5 63.5,134.1 "/>
<polygon class="st0" points="79.9,97.2 67.9,117.8 91.8,117.9 "/>
<polygon class="st0" points="79.8,138.5 59.1,150.4 63.5,134.1 "/>
<polygon class="st0" points="59.1,150.4 47.2,129.7 63.5,134.1 "/>
<polygon class="st0" points="47.2,129.7 67.9,117.8 63.5,134.1 "/>
<polygon class="st0" points="79.8,138.5 79.7,162.4 59.1,150.4 "/>
<polygon class="st0" points="79.7,162.4 59.1,150.4 63.4,166.7 "/>
<polygon class="st0" points="100.4,150.5 79.7,162.4 79.8,138.5 "/>
<polygon class="st0" points="59.1,150.4 47.1,171 63.4,166.7 "/>
<polygon class="st0" points="47.1,171 67.7,183 63.4,166.7 "/>
<polygon class="st0" points="67.7,183 79.7,162.4 63.4,166.7 "/>
<polygon class="st0" points="91.5,183 67.7,183 79.6,203.7 "/>
<polygon class="st0" points="67.7,183 79.6,203.7 63.3,199.3 "/>
<polygon class="st0" points="79.7,162.4 67.7,183 91.5,183 "/>
<polygon class="st0" points="79.6,203.7 58.9,215.6 63.3,199.3 "/>
<polygon class="st0" points="58.9,215.6 47,194.9 63.3,199.3 "/>
<polygon class="st0" points="47,194.9 67.7,183 63.3,199.3 "/>
<polygon class="st0" points="79.6,203.7 79.5,227.6 58.9,215.6 "/>
<polygon class="st0" points="79.5,227.6 58.9,215.6 63.2,231.9 "/>
<polygon class="st0" points="100.2,215.7 79.5,227.6 79.6,203.7 "/>
<polygon class="st0" points="58.9,215.6 46.9,236.2 63.2,231.9 "/>
<polygon class="st0" points="46.9,236.2 67.5,248.2 63.2,231.9 "/>
<polygon class="st0" points="67.5,248.2 79.5,227.6 63.2,231.9 "/>
<polygon class="st0" points="124.2,150.5 100.4,150.5 112.3,171.2 "/>
<polygon class="st0" points="112.4,129.9 100.4,150.5 124.2,150.5 "/>
<polygon class="st0" points="112.3,171.2 112.2,195.1 91.5,183 "/>
<polygon class="st0" points="132.9,183.2 112.2,195.1 112.3,171.2 "/>
<polygon class="st0" points="124,215.7 100.2,215.7 112.1,236.4 "/>
<polygon class="st0" points="112.2,195.1 100.2,215.7 124,215.7 "/>
<polygon class="st0" points="112.1,236.4 112,260.2 91.3,248.2 "/>
<polygon class="st0" points="132.7,248.4 112,260.2 112.1,236.4 "/>
<polygon class="st0" points="156.7,183.2 132.9,183.2 144.7,203.8 "/>
<polygon class="st0" points="132.9,183.2 144.8,203.9 128.5,199.5 "/>
<polygon class="st0" points="144.9,162.6 132.9,183.2 156.7,183.2 "/>
<polygon class="st0" points="144.7,203.8 124,215.7 128.5,199.5 "/>
<polygon class="st0" points="124,215.7 112.2,195.1 128.5,199.5 "/>
<polygon class="st0" points="112.2,195.1 132.9,183.2 128.5,199.5 "/>
<polygon class="st0" points="144.7,203.8 144.7,227.8 124,215.7 "/>
<polygon class="st0" points="144.7,227.8 124,215.7 128.4,232.1 "/>
<polygon class="st0" points="165.4,215.9 144.7,227.8 144.7,203.8 "/>
<polygon class="st0" points="124,215.7 112.1,236.4 128.4,232.1 "/>
<polygon class="st0" points="112.1,236.4 132.7,248.4 128.4,232.1 "/>
<polygon class="st0" points="132.7,248.4 144.7,227.8 128.4,232.1 "/>
<polygon class="st0" points="2.5,182.8 -18.2,194.7 -18.1,170.8 "/>
<polygon class="st0" points="2.3,248 -18.3,259.8 -18.3,236 "/>
<polygon class="st0" points="26.3,182.8 2.5,182.8 14.4,203.5 "/>
<polygon class="st0" points="2.5,182.8 14.4,203.5 -1.9,199.1 "/>
<polygon class="st0" points="14.5,162.2 2.5,182.8 26.3,182.8 "/>
<polygon class="st0" points="14.4,203.5 -6.4,215.3 -1.9,199.1 "/>
<polygon class="st0" points="-6.4,215.3 -18.2,194.7 -1.9,199.1 "/>
<polygon class="st0" points="-18.2,194.7 2.5,182.8 -1.9,199.1 "/>
<polygon class="st0" points="14.4,203.5 14.3,227.4 -6.4,215.3 "/>
<polygon class="st0" points="14.3,227.4 -6.4,215.3 -2,231.7 "/>
<polygon class="st0" points="35,215.5 14.3,227.4 14.4,203.5 "/>
<polygon class="st0" points="-6.4,215.3 -18.3,236 -2,231.7 "/>
<polygon class="st0" points="-18.3,236 2.3,248 -2,231.7 "/>
<polygon class="st0" points="2.3,248 14.3,227.4 -2,231.7 "/>
<polygon class="st0" points="26.1,248 2.3,248 14.2,268.7 "/>
<polygon class="st0" points="2.3,248 14.2,268.7 -2.1,264.3 "/>
<polygon class="st0" points="14.3,227.4 2.3,248 26.1,248 "/>
<polygon class="st0" points="14.2,268.7 -6.6,280.5 -2.1,264.3 "/>
<polygon class="st0" points="-6.6,280.5 -18.4,259.9 -2.1,264.3 "/>
<polygon class="st0" points="-18.4,259.9 2.3,248 -2.1,264.3 "/>
<polygon class="st0" points="14.2,268.7 14.1,292.6 -6.6,280.5 "/>
<polygon class="st0" points="14.1,292.6 -6.6,280.5 -2.2,296.9 "/>
<polygon class="st0" points="34.8,280.7 14.1,292.6 14.2,268.7 "/>
<polygon class="st0" points="-6.6,280.5 -18.5,301.2 -2.2,296.9 "/>
<polygon class="st0" points="-18.5,301.2 2.1,313.2 -2.2,296.9 "/>
<polygon class="st0" points="2.1,313.2 14.1,292.6 -2.2,296.9 "/>
<polygon class="st0" points="58.8,215.5 35,215.5 46.8,236.1 "/>
<polygon class="st0" points="35,215.5 46.9,236.2 30.6,231.8 "/>
<polygon class="st0" points="47,194.9 35,215.5 58.8,215.5 "/>
<polygon class="st0" points="46.8,236.1 26.1,248 30.6,231.8 "/>
<polygon class="st0" points="26.1,248 14.3,227.4 30.6,231.8 "/>
<polygon class="st0" points="14.3,227.4 35,215.5 30.6,231.8 "/>
<polygon class="st0" points="46.8,236.1 46.8,260.1 26.1,248 "/>
<polygon class="st0" points="46.8,260.1 26.1,248 30.5,264.4 "/>
<polygon class="st0" points="67.5,248.2 46.8,260.1 46.8,236.1 "/>
<polygon class="st0" points="26.1,248 14.2,268.7 30.5,264.4 "/>
<polygon class="st0" points="14.2,268.7 34.8,280.7 30.5,264.4 "/>
<polygon class="st0" points="34.8,280.7 46.8,260.1 30.5,264.4 "/>
<polygon class="st0" points="58.6,280.7 34.8,280.7 46.6,301.3 "/>
<polygon class="st0" points="34.8,280.7 46.6,301.3 30.4,297 "/>
<polygon class="st0" points="46.8,260.1 34.8,280.7 58.6,280.7 "/>
<polygon class="st0" points="46.6,301.3 25.9,313.2 30.4,297 "/>
<polygon class="st0" points="25.9,313.2 14.1,292.6 30.3,296.9 "/>
<polygon class="st0" points="14.1,292.6 34.8,280.7 30.4,297 "/>
<polygon class="st0" points="46.6,301.3 46.6,325.1 25.9,313.2 "/>
<polygon class="st0" points="67.3,313.4 46.6,325.1 46.6,301.3 "/>
<polygon class="st0" points="91.3,248.2 67.5,248.2 79.3,268.8 "/>
<polygon class="st0" points="67.5,248.2 79.3,268.8 63,264.4 "/>
<polygon class="st0" points="79.4,227.5 67.5,248.2 91.3,248.2 "/>
<polygon class="st0" points="79.3,268.8 58.6,280.7 63,264.4 "/>
<polygon class="st0" points="58.6,280.7 46.8,260.1 63,264.4 "/>
<polygon class="st0" points="46.8,260.1 67.5,248.2 63,264.4 "/>
<polygon class="st0" points="79.3,268.8 79.2,292.7 58.6,280.7 "/>
<polygon class="st0" points="79.2,292.7 58.6,280.7 62.9,297 "/>
<polygon class="st0" points="100,280.9 79.2,292.7 79.3,268.8 "/>
<polygon class="st0" points="58.6,280.7 46.6,301.3 62.9,297 "/>
<polygon class="st0" points="46.6,301.3 67.3,313.4 62.9,297 "/>
<polygon class="st0" points="67.3,313.4 79.2,292.7 62.9,297 "/>
<polygon class="st0" points="2.1,313.2 -18.6,325 -18.5,301.2 "/>
<polygon class="st0" points="2,378.3 -18.8,390.2 -18.7,366.4 "/>
<polygon class="st0" points="26,313.1 2.2,313.1 14,333.9 "/>
<polygon class="st0" points="14.2,292.5 2.1,313.2 26,313.1 "/>
<polygon class="st0" points="14,333.9 13.9,357.7 -6.7,345.6 "/>
<polygon class="st0" points="13.9,357.7 -6.7,345.6 -2.3,362 "/>
<polygon class="st0" points="34.7,345.8 13.9,357.7 14,333.9 "/>
<polygon class="st0" points="-6.7,345.6 -18.7,366.4 -2.3,362 "/>
<polygon class="st0" points="-18.7,366.4 2,378.3 -2.3,362 "/>
<polygon class="st0" points="2,378.3 13.9,357.7 -2.3,362 "/>
<polygon class="st0" points="221.8,183.6 197.9,183.5 209.8,204.2 "/>
<polygon class="st0" points="197.9,183.5 209.8,204.2 193.5,199.8 "/>
<polygon class="st0" points="209.9,162.8 197.9,183.5 221.8,183.6 "/>
<polygon class="st0" points="209.8,204.2 189.1,216 193.5,199.8 "/>
<polygon class="st0" points="189.1,216 177.2,195.3 193.5,199.8 "/>
<polygon class="st0" points="177.2,195.3 197.9,183.5 193.5,199.8 "/>
<polygon class="st0" points="209.8,204.2 209.7,228 189.1,216 "/>
<polygon class="st0" points="209.7,228 189.1,216 193.4,232.3 "/>
<polygon class="st0" points="230.4,216.2 209.7,228 209.8,204.2 "/>
<polygon class="st0" points="189.1,216 177.1,236.7 193.4,232.3 "/>
<polygon class="st0" points="177.1,236.7 197.8,248.7 193.4,232.4 "/>
<polygon class="st0" points="197.7,248.6 209.7,228 193.4,232.3 "/>
<polygon class="st0" points="254.5,151.1 230.6,151 242.5,171.7 "/>
<polygon class="st0" points="230.6,151 242.5,171.7 226.2,167.3 "/>
<polygon class="st0" points="242.6,130.4 230.6,151 254.5,151.1 "/>
<polygon class="st0" points="242.5,171.7 221.8,183.6 226.2,167.3 "/>
<polygon class="st0" points="221.8,183.6 209.9,162.8 226.2,167.3 "/>
<polygon class="st0" points="209.9,162.8 230.6,151 226.2,167.3 "/>
<polygon class="st0" points="242.5,171.7 242.4,195.5 221.8,183.6 "/>
<polygon class="st0" points="242.4,195.5 221.8,183.6 226.1,199.9 "/>
<polygon class="st0" points="263.1,183.7 242.4,195.5 242.5,171.7 "/>
<polygon class="st0" points="221.8,183.6 209.8,204.2 226.1,199.9 "/>
<polygon class="st0" points="209.8,204.2 230.4,216.2 226.1,199.9 "/>
<polygon class="st0" points="230.4,216.2 242.4,195.5 226.1,199.9 "/>
<polygon class="st0" points="254.3,216.3 230.4,216.2 242.3,236.9 "/>
<polygon class="st0" points="230.4,216.2 242.3,236.9 226,232.5 "/>
<polygon class="st0" points="242.4,195.5 230.4,216.2 254.3,216.3 "/>
<polygon class="st0" points="242.3,236.9 221.6,248.7 226,232.5 "/>
<polygon class="st0" points="221.6,248.7 209.7,228 226,232.5 "/>
<polygon class="st0" points="209.7,228 230.4,216.2 226,232.5 "/>
<polygon class="st0" points="242.3,236.9 242.2,260.7 221.6,248.7 "/>
<polygon class="st0" points="242.2,260.7 221.6,248.7 225.9,265 "/>
<polygon class="st0" points="262.9,248.9 242.2,260.7 242.3,236.9 "/>
<polygon class="st0" points="221.6,248.7 209.6,269.4 225.9,265 "/>
<polygon class="st0" points="209.6,269.4 230.2,281.3 225.9,265 "/>
<polygon class="st0" points="230.2,281.3 242.2,260.7 225.9,265 "/>
<polygon class="st0" points="287,183.8 263.1,183.7 275,204.4 "/>
<polygon class="st0" points="263.1,183.7 275,204.4 258.7,200 "/>
<polygon class="st0" points="275.1,163.1 263.1,183.7 287,183.8 "/>
<polygon class="st0" points="275,204.4 254.3,216.3 258.7,200 "/>
<polygon class="st0" points="254.3,216.3 242.4,195.5 258.7,200 "/>
<polygon class="st0" points="242.4,195.5 263.1,183.7 258.7,200 "/>
<polygon class="st0" points="275,204.4 274.9,228.2 254.3,216.3 "/>
<polygon class="st0" points="274.9,228.2 254.3,216.3 258.6,232.6 "/>
<polygon class="st0" points="295.6,216.4 274.9,228.2 275,204.4 "/>
<polygon class="st0" points="254.3,216.3 242.3,236.9 258.6,232.6 "/>
<polygon class="st0" points="242.3,236.9 262.9,248.9 258.6,232.6 "/>
<polygon class="st0" points="262.9,248.9 274.9,228.2 258.6,232.6 "/>
<polygon class="st0" points="286.8,249 262.9,248.9 274.8,269.6 "/>
<polygon class="st0" points="262.9,248.9 274.8,269.6 258.5,265.2 "/>
<polygon class="st0" points="274.9,228.2 262.9,248.9 286.8,249 "/>
<polygon class="st0" points="274.8,269.6 254.1,281.4 258.5,265.2 "/>
<polygon class="st0" points="254.1,281.4 242.2,260.7 258.5,265.2 "/>
<polygon class="st0" points="242.2,260.7 262.9,248.9 258.5,265.2 "/>
<polygon class="st0" points="274.8,269.6 274.7,293.4 254.1,281.4 "/>
<polygon class="st0" points="274.7,293.4 254.1,281.4 258.4,297.7 "/>
<polygon class="st0" points="295.4,281.6 274.7,293.4 274.8,269.6 "/>
<polygon class="st0" points="254.1,281.4 242.1,302.1 258.4,297.7 "/>
<polygon class="st0" points="242.1,302.1 262.7,314 258.4,297.7 "/>
<polygon class="st0" points="262.7,314 274.7,293.4 258.4,297.7 "/>
<polygon class="st0" points="319.4,216.4 295.6,216.4 307.5,237.1 "/>
<polygon class="st0" points="295.6,216.4 307.5,237.1 291.2,232.7 "/>
<polygon class="st0" points="307.6,195.8 295.6,216.4 319.4,216.4 "/>
<polygon class="st0" points="307.5,237.1 286.8,249 291.2,232.7 "/>
<polygon class="st0" points="286.8,249 274.9,228.2 291.2,232.7 "/>
<polygon class="st0" points="274.9,228.2 295.6,216.4 291.2,232.7 "/>
<polygon class="st0" points="307.5,237.1 307.4,260.9 286.8,249 "/>
<polygon class="st0" points="307.4,260.9 286.8,249 291.1,265.3 "/>
<polygon class="st0" points="328.1,249.1 307.4,260.9 307.5,237.1 "/>
<polygon class="st0" points="286.8,249 274.8,269.6 291.1,265.3 "/>
<polygon class="st0" points="274.8,269.6 295.4,281.6 291.1,265.3 "/>
<polygon class="st0" points="295.4,281.6 307.4,260.9 291.1,265.3 "/>
<polygon class="st0" points="319.2,281.6 295.4,281.6 307.3,302.3 "/>
<polygon class="st0" points="295.4,281.6 307.3,302.3 291,297.9 "/>
<polygon class="st0" points="307.4,260.9 295.4,281.6 319.2,281.6 "/>
<polygon class="st0" points="307.3,302.3 286.6,314 291,297.9 "/>
<polygon class="st0" points="286.6,314 274.7,293.4 291,297.9 "/>
<polygon class="st0" points="274.7,293.4 295.4,281.6 291,297.9 "/>
<polygon class="st0" points="307.3,302.3 307.2,326.1 286.6,314 "/>
<polygon class="st0" points="327.9,314.3 307.2,326.1 307.3,302.3 "/>
<polygon class="st0" points="351.9,249.1 328.1,249.1 340,269.8 "/>
<polygon class="st0" points="328.1,249.1 340,269.8 323.7,265.4 "/>
<polygon class="st0" points="340,228.5 328.1,249.1 351.9,249.1 "/>
<polygon class="st0" points="340,269.8 319.2,281.6 323.7,265.4 "/>
<polygon class="st0" points="319.2,281.6 307.4,260.9 323.7,265.4 "/>
<polygon class="st0" points="307.4,260.9 328.1,249.1 323.7,265.4 "/>
<polygon class="st0" points="340,269.8 339.9,293.6 319.2,281.6 "/>
<polygon class="st0" points="339.9,293.6 319.2,281.6 323.6,298 "/>
<polygon class="st0" points="360.6,281.8 339.9,293.6 340,269.8 "/>
<polygon class="st0" points="319.2,281.6 307.3,302.3 323.6,298 "/>
<polygon class="st0" points="307.3,302.3 327.9,314.3 323.6,298 "/>
<polygon class="st0" points="327.9,314.3 339.9,293.6 323.6,298 "/>
<polygon class="st0" points="351.7,314.3 327.9,314.3 339.7,334.9 "/>
<polygon class="st0" points="339.9,293.6 327.9,314.3 351.7,314.3 "/>
<polygon class="st0" points="339.7,334.9 339.6,358.7 319.1,346.7 "/>
<polygon class="st0" points="339.6,358.7 319.1,346.7 323.3,363 "/>
<polygon class="st0" points="360.3,347 339.6,358.7 339.7,334.9 "/>
<polygon class="st0" points="319.1,346.7 307,367.4 323.3,363 "/>
<polygon class="st0" points="307,367.4 327.7,379.4 323.3,363 "/>
<polygon class="st0" points="327.7,379.4 339.6,358.7 323.3,363 "/>
<polygon class="st0" points="384.4,281.8 360.6,281.8 372.4,302.4 "/>
<polygon class="st0" points="360.6,281.8 372.4,302.4 356.1,298 "/>
<polygon class="st0" points="372.5,261.1 360.6,281.8 384.4,281.8 "/>
<polygon class="st0" points="372.4,302.4 351.7,314.3 356.1,298 "/>
<polygon class="st0" points="351.7,314.3 339.9,293.6 356.1,298 "/>
<polygon class="st0" points="339.9,293.6 360.6,281.8 356.1,298 "/>
<polygon class="st0" points="372.4,302.4 372.3,326.2 351.7,314.3 "/>
<polygon class="st0" points="393,314.5 372.3,326.2 372.4,302.4 "/>
<polygon class="st0" points="384.2,346.9 360.3,347 372.2,367.6 "/>
<polygon class="st0" points="360.3,347 372.2,367.6 355.9,363.1 "/>
<polygon class="st0" points="372.3,326.2 360.3,347 384.2,346.9 "/>
<polygon class="st0" points="372.2,367.6 351.5,379.4 355.9,363.1 "/>
<polygon class="st0" points="351.5,379.4 339.6,358.7 355.9,363.1 "/>
<polygon class="st0" points="339.6,358.7 360.3,347 355.9,363.1 "/>
<polygon class="st0" points="372.2,367.6 372.1,391.4 351.5,379.4 "/>
<polygon class="st0" points="372.1,391.4 351.5,379.4 355.8,395.7 "/>
<polygon class="st0" points="392.8,379.5 372.1,391.4 372.2,367.6 "/>
<polygon class="st0" points="351.5,379.4 339.5,400.1 355.8,395.7 "/>
<polygon class="st0" points="339.5,400.1 360.2,412.1 355.8,395.7 "/>
<polygon class="st0" points="360.2,412.1 372.1,391.4 355.8,395.7 "/>
<polygon class="st0" points="416.9,314.5 393,314.5 404.9,335.1 "/>
<polygon class="st0" points="405,293.7 393,314.5 416.9,314.5 "/>
<polygon class="st0" points="404.9,335.1 404.8,358.9 384.2,346.9 "/>
<polygon class="st0" points="404.8,358.9 384.2,346.9 388.5,363.2 "/>
<polygon class="st0" points="425.5,347.1 404.8,358.9 404.9,335.1 "/>
<polygon class="st0" points="384.2,346.9 372.2,367.6 388.5,363.2 "/>
<polygon class="st0" points="372.2,367.6 392.8,379.5 388.5,363.2 "/>
<polygon class="st0" points="392.8,379.5 404.8,358.9 388.5,363.2 "/>
<polygon class="st0" points="416.7,379.6 392.8,379.6 404.7,400.3 "/>
<polygon class="st0" points="392.8,379.6 404.7,400.3 388.4,395.8 "/>
<polygon class="st0" points="404.8,358.9 392.8,379.6 416.7,379.6 "/>
<polygon class="st0" points="404.7,400.3 384,412.1 388.4,395.8 "/>
<polygon class="st0" points="384,412.1 372.1,391.4 388.4,395.8 "/>
<polygon class="st0" points="372.1,391.4 392.8,379.6 388.4,395.8 "/>
<polygon class="st0" points="449.4,347.2 425.5,347.1 437.4,367.8 "/>
<polygon class="st0" points="425.5,347.1 437.4,367.8 421.1,363.4 "/>
<polygon class="st0" points="437.5,326.5 425.5,347.1 449.4,347.2 "/>
<polygon class="st0" points="437.4,367.8 416.7,379.6 421.1,363.4 "/>
<polygon class="st0" points="416.7,379.7 404.8,358.9 421.1,363.4 "/>
<polygon class="st0" points="404.8,358.9 425.5,347.1 421.1,363.4 "/>
<polygon class="st0" points="437.4,367.8 437.3,391.6 416.7,379.7 "/>
<polygon class="st0" points="437.3,391.6 416.7,379.7 421,396 "/>
<polygon class="st0" points="458,379.8 437.3,391.6 437.4,367.8 "/>
<polygon class="st0" points="416.7,379.7 404.7,400.3 421,396 "/>
<polygon class="st0" points="404.7,400.3 425.3,412.3 421,396 "/>
<polygon class="st0" points="425.3,412.2 437.3,391.6 421,396 "/>
<polygon class="st0" points="437.3,391.6 425.3,412.2 449.2,412.4 "/>
<polygon class="st0" points="481.8,379.9 458,379.8 469.9,400.5 "/>
<polygon class="st0" points="458,379.8 469.9,400.5 453.6,396.1 "/>
<polygon class="st0" points="470,359.1 458,379.8 481.8,379.9 "/>
<polygon class="st0" points="469.9,400.5 449.2,412.4 453.6,396.1 "/>
<polygon class="st0" points="449.2,412.4 437.3,391.6 453.6,396.1 "/>
<polygon class="st0" points="437.3,391.6 458,379.8 453.6,396.1 "/>
<polygon class="st0" points="156.4,248.5 132.6,248.4 144.5,269.1 "/>
<polygon class="st0" points="132.6,248.4 144.5,269.1 128.2,264.8 "/>
<polygon class="st0" points="144.6,227.9 132.6,248.4 156.4,248.5 "/>
<polygon class="st0" points="144.5,269.1 123.7,281 128.2,264.8 "/>
<polygon class="st0" points="123.7,281 111.9,260.4 128.2,264.8 "/>
<polygon class="st0" points="111.9,260.4 132.6,248.4 128.2,264.8 "/>
<polygon class="st0" points="144.5,269.1 144.3,293 123.7,281 "/>
<polygon class="st0" points="144.3,293 123.7,281 128,297.3 "/>
<polygon class="st0" points="165.1,281.1 144.3,293 144.5,269.1 "/>
<polygon class="st0" points="123.7,281 111.8,301.6 128,297.3 "/>
<polygon class="st0" points="111.8,301.6 132.4,313.6 128,297.3 "/>
<polygon class="st0" points="132.4,313.6 144.3,293 128,297.3 "/>
<polygon class="st0" points="189.1,216 165.3,216 177.2,236.6 "/>
<polygon class="st0" points="165.3,216 177.2,236.6 160.8,232.2 "/>
<polygon class="st0" points="177.2,195.3 165.3,216 189.1,216 "/>
<polygon class="st0" points="177.2,236.6 156.4,248.5 160.8,232.2 "/>
<polygon class="st0" points="156.4,248.5 144.6,227.9 160.8,232.2 "/>
<polygon class="st0" points="144.6,227.9 165.3,216 160.8,232.2 "/>
<polygon class="st0" points="177.2,236.6 177,260.5 156.4,248.5 "/>
<polygon class="st0" points="177,260.5 156.4,248.5 160.7,264.8 "/>
<polygon class="st0" points="197.8,248.7 177,260.5 177.1,236.7 "/>
<polygon class="st0" points="156.4,248.5 144.5,269.1 160.7,264.8 "/>
<polygon class="st0" points="144.5,269.1 165.1,281.1 160.7,264.8 "/>
<polygon class="st0" points="165.1,281.1 177,260.5 160.7,264.8 "/>
<polygon class="st0" points="188.9,281.2 165.1,281.1 176.9,301.8 "/>
<polygon class="st0" points="165.1,281.1 176.9,301.8 160.6,297.4 "/>
<polygon class="st0" points="177,260.5 165.1,281.1 188.9,281.2 "/>
<polygon class="st0" points="176.9,301.8 156.2,313.7 160.6,297.4 "/>
<polygon class="st0" points="156.2,313.7 144.3,293 160.6,297.4 "/>
<polygon class="st0" points="144.3,293 165.1,281.1 160.6,297.4 "/>
<polygon class="st0" points="176.9,301.8 176.9,325.6 156.2,313.7 "/>
<polygon class="st0" points="197.5,313.8 176.8,325.7 176.9,301.8 "/>
<polygon class="st0" points="221.6,248.7 197.8,248.7 209.7,269.3 "/>
<polygon class="st0" points="197.8,248.7 209.7,269.3 193.3,264.9 "/>
<polygon class="st0" points="209.7,228 197.8,248.7 221.6,248.7 "/>
<polygon class="st0" points="209.7,269.3 188.9,281.2 193.3,264.9 "/>
<polygon class="st0" points="188.9,281.2 177,260.5 193.3,264.9 "/>
<polygon class="st0" points="177,260.5 197.8,248.7 193.3,264.9 "/>
<polygon class="st0" points="209.7,269.3 209.5,293.2 188.9,281.2 "/>
<polygon class="st0" points="209.5,293.2 188.9,281.2 193.2,297.5 "/>
<polygon class="st0" points="230.2,281.3 209.5,293.2 209.7,269.3 "/>
<polygon class="st0" points="188.9,281.2 176.9,301.8 193.2,297.5 "/>
<polygon class="st0" points="176.9,301.8 197.5,313.8 193.2,297.5 "/>
<polygon class="st0" points="197.5,313.8 209.5,293.2 193.2,297.5 "/>
<polygon class="st0" points="221.4,313.9 197.5,313.8 209.4,334.5 "/>
<polygon class="st0" points="209.5,293.2 197.5,313.8 221.4,313.9 "/>
<polygon class="st0" points="209.4,334.5 209.3,358.4 188.7,346.4 "/>
<polygon class="st0" points="209.3,358.4 188.7,346.4 193,362.7 "/>
<polygon class="st0" points="230,346.5 209.3,358.4 209.4,334.5 "/>
<polygon class="st0" points="188.7,346.4 176.7,367 193,362.7 "/>
<polygon class="st0" points="176.7,367 197.3,379 193,362.7 "/>
<polygon class="st0" points="197.3,379 209.3,358.4 193,362.7 "/>
<polygon class="st0" points="254.1,281.4 230.2,281.3 242.1,302 "/>
<polygon class="st0" points="230.2,281.3 242.1,302 225.8,297.6 "/>
<polygon class="st0" points="242.2,260.7 230.2,281.3 254.1,281.4 "/>
<polygon class="st0" points="242.1,302 221.4,313.9 225.8,297.6 "/>
<polygon class="st0" points="221.4,313.9 209.5,293.2 225.8,297.6 "/>
<polygon class="st0" points="209.5,293.2 230.2,281.3 225.8,297.6 "/>
<polygon class="st0" points="242.1,302 242,325.9 221.4,313.9 "/>
<polygon class="st0" points="262.7,314 242,325.9 242.1,302 "/>
<polygon class="st0" points="253.9,346.6 230,346.5 241.9,367.2 "/>
<polygon class="st0" points="230,346.5 241.9,367.2 225.6,362.8 "/>
<polygon class="st0" points="242,325.9 230,346.5 253.9,346.6 "/>
<polygon class="st0" points="241.9,367.2 221.2,379.1 225.6,362.8 "/>
<polygon class="st0" points="221.2,379.1 209.3,358.4 225.6,362.8 "/>
<polygon class="st0" points="209.3,358.4 230,346.5 225.6,362.8 "/>
<polygon class="st0" points="241.9,367.2 241.9,391 221.2,379.1 "/>
<polygon class="st0" points="241.9,391 221.2,379.1 225.5,395.4 "/>
<polygon class="st0" points="262.5,379.2 241.9,391 241.9,367.2 "/>
<polygon class="st0" points="221.2,379.1 209.2,399.7 225.5,395.4 "/>
<polygon class="st0" points="209.2,399.7 229.8,411.7 225.5,395.4 "/>
<polygon class="st0" points="229.8,411.7 241.9,391 225.5,395.4 "/>
<polygon class="st0" points="286.6,314 262.7,314 274.6,334.7 "/>
<polygon class="st0" points="274.7,293.4 262.7,314 286.6,314 "/>
<polygon class="st0" points="274.6,334.7 274.5,358.6 253.9,346.6 "/>
<polygon class="st0" points="274.5,358.6 253.9,346.6 258.2,362.9 "/>
<polygon class="st0" points="295.2,346.7 274.5,358.6 274.6,334.7 "/>
<polygon class="st0" points="253.9,346.6 241.9,367.2 258.2,362.9 "/>
<polygon class="st0" points="241.9,367.2 262.5,379.2 258.2,362.9 "/>
<polygon class="st0" points="262.5,379.2 274.5,358.6 258.2,362.9 "/>
<polygon class="st0" points="286.4,379.2 262.5,379.2 274.4,399.9 "/>
<polygon class="st0" points="262.5,379.2 274.4,399.9 258.1,395.5 "/>
<polygon class="st0" points="274.5,358.6 262.5,379.2 286.4,379.2 "/>
<polygon class="st0" points="274.4,399.9 253.6,411.7 258.1,395.5 "/>
<polygon class="st0" points="253.6,411.7 241.9,391 258.1,395.5 "/>
<polygon class="st0" points="241.9,391 262.5,379.2 258.1,395.5 "/>
<polygon class="st0" points="319.1,346.7 295.2,346.7 307.1,367.4 "/>
<polygon class="st0" points="295.2,346.7 307.1,367.4 290.8,363 "/>
<polygon class="st0" points="307.2,326.1 295.2,346.7 319.1,346.7 "/>
<polygon class="st0" points="307.1,367.4 286.4,379.2 290.8,363 "/>
<polygon class="st0" points="286.4,379.2 274.5,358.6 290.8,363 "/>
<polygon class="st0" points="274.5,358.6 295.2,346.7 290.8,363 "/>
<polygon class="st0" points="307.1,367.4 307,391.3 286.4,379.2 "/>
<polygon class="st0" points="307,391.3 286.4,379.2 290.7,395.6 "/>
<polygon class="st0" points="327.7,379.4 307,391.3 307.1,367.4 "/>
<polygon class="st0" points="286.4,379.2 274.4,399.9 290.7,395.6 "/>
<polygon class="st0" points="274.4,399.9 295,411.9 290.7,395.6 "/>
<polygon class="st0" points="295,411.9 307,391.3 290.7,395.6 "/>
<polygon class="st0" points="307,391.3 295,411.9 318.8,411.9 "/>
<polygon class="st0" points="351.5,379.4 327.7,379.4 339.6,400 "/>
<polygon class="st0" points="327.7,379.4 339.6,400 323.3,395.7 "/>
<polygon class="st0" points="339.7,358.8 327.7,379.4 351.5,379.4 "/>
<polygon class="st0" points="339.6,400 318.8,411.9 323.2,395.6 "/>
<polygon class="st0" points="318.8,411.9 307,391.3 323.2,395.6 "/>
<polygon class="st0" points="307,391.3 327.7,379.4 323.3,395.7 "/>
<polygon class="st0" points="372.1,391.4 360.2,412.1 384,412.1 "/>
<polygon class="st0" points="91,313.5 67.2,313.4 79.1,334.1 "/>
<polygon class="st0" points="79.1,292.8 67.2,313.4 91,313.5 "/>
<polygon class="st0" points="79.1,334.1 78.9,358 58.3,346 "/>
<polygon class="st0" points="78.9,358 58.3,346 62.6,362.3 "/>
<polygon class="st0" points="99.6,346.1 78.9,358 79.1,334.1 "/>
<polygon class="st0" points="58.3,346 46.4,366.6 62.6,362.3 "/>
<polygon class="st0" points="46.4,366.6 67,378.6 62.6,362.3 "/>
<polygon class="st0" points="67,378.6 78.9,358 62.6,362.3 "/>
<polygon class="st0" points="123.7,281 99.9,280.9 111.8,301.6 "/>
<polygon class="st0" points="111.8,260.3 99.9,280.9 123.7,281 "/>
<polygon class="st0" points="111.8,301.6 111.6,325.5 91,313.5 "/>
<polygon class="st0" points="132.3,313.6 111.6,325.5 111.8,301.6 "/>
<polygon class="st0" points="123.5,346.2 99.6,346.1 111.5,366.8 "/>
<polygon class="st0" points="111.6,325.5 99.6,346.1 123.5,346.2 "/>
<polygon class="st0" points="111.5,366.8 111.5,390.6 90.8,378.7 "/>
<polygon class="st0" points="132.1,378.8 111.5,390.6 111.5,366.8 "/>
<polygon class="st0" points="156.2,313.7 132.3,313.6 144.2,334.3 "/>
<polygon class="st0" points="144.3,293 132.3,313.6 156.2,313.7 "/>
<polygon class="st0" points="144.2,334.3 144.1,358.2 123.5,346.2 "/>
<polygon class="st0" points="144.1,358.2 123.5,346.2 127.8,362.5 "/>
<polygon class="st0" points="164.8,346.3 144.1,358.2 144.2,334.3 "/>
<polygon class="st0" points="123.5,346.2 111.5,366.8 127.8,362.5 "/>
<polygon class="st0" points="111.5,366.8 132.1,378.8 127.8,362.5 "/>
<polygon class="st0" points="132.1,378.8 144.1,358.2 127.8,362.5 "/>
<polygon class="st0" points="156,378.9 132.1,378.8 144,399.5 "/>
<polygon class="st0" points="132.1,378.8 144,399.5 127.7,395.1 "/>
<polygon class="st0" points="144.1,358.2 132.1,378.8 156,378.9 "/>
<polygon class="st0" points="144,399.5 123.3,411.4 127.7,395.1 "/>
<polygon class="st0" points="123.3,411.4 111.4,390.7 127.7,395.1 "/>
<polygon class="st0" points="111.4,390.7 132.1,378.8 127.7,395.1 "/>
<polygon class="st0" points="188.7,346.3 164.8,346.3 176.7,367 "/>
<polygon class="st0" points="164.8,346.3 176.7,367 160.4,362.6 "/>
<polygon class="st0" points="176.8,325.7 164.8,346.3 188.7,346.3 "/>
<polygon class="st0" points="176.7,367 156,378.9 160.4,362.6 "/>
<polygon class="st0" points="156,378.9 144.1,358.2 160.4,362.6 "/>
<polygon class="st0" points="144.1,358.2 164.8,346.3 160.4,362.6 "/>
<polygon class="st0" points="176.7,367 176.6,390.9 156,378.9 "/>
<polygon class="st0" points="176.6,390.9 156,378.9 160.3,395.2 "/>
<polygon class="st0" points="197.3,379 176.6,390.9 176.7,367 "/>
<polygon class="st0" points="156,378.9 144,399.5 160.3,395.2 "/>
<polygon class="st0" points="144,399.5 164.6,411.5 160.3,395.2 "/>
<polygon class="st0" points="164.6,411.5 176.6,390.9 160.3,395.2 "/>
<polygon class="st0" points="176.6,390.9 164.6,411.5 188.5,411.5 "/>
<polygon class="st0" points="221.2,379 197.3,379 209.2,399.7 "/>
<polygon class="st0" points="197.3,379 209.2,399.7 192.9,395.3 "/>
<polygon class="st0" points="209.3,358.4 197.3,379 221.2,379 "/>
<polygon class="st0" points="209.2,399.7 188.5,411.5 192.9,395.3 "/>
<polygon class="st0" points="188.5,411.5 176.6,390.9 192.9,395.3 "/>
<polygon class="st0" points="176.6,390.9 197.3,379 192.9,395.3 "/>
<polygon class="st0" points="241.8,391.1 229.8,411.7 253.6,411.7 "/>
<polygon class="st0" points="25.7,378.4 1.9,378.3 13.7,399.1 "/>
<polygon class="st0" points="1.9,378.3 13.7,399.1 -2.5,394.7 "/>
<polygon class="st0" points="13.9,357.8 1.9,378.3 25.7,378.4 "/>
<polygon class="st0" points="13.7,399.1 -7,410.9 -2.5,394.7 "/>
<polygon class="st0" points="-7,410.9 -18.8,390.3 -2.5,394.7 "/>
<polygon class="st0" points="-18.8,390.3 1.9,378.3 -2.5,394.7 "/>
<polygon class="st0" points="58.3,346 34.5,345.9 46.4,366.6 "/>
<polygon class="st0" points="34.5,345.9 46.4,366.6 30.2,362.2 "/>
<polygon class="st0" points="46.6,325.3 34.5,345.9 58.3,346 "/>
<polygon class="st0" points="46.4,366.6 25.7,378.4 30.1,362.1 "/>
<polygon class="st0" points="25.7,378.4 13.9,357.8 30.1,362.1 "/>
<polygon class="st0" points="13.9,357.8 34.5,345.9 30.2,362.2 "/>
<polygon class="st0" points="46.4,366.6 46.3,390.4 25.7,378.4 "/>
<polygon class="st0" points="46.3,390.4 25.7,378.4 30,394.7 "/>
<polygon class="st0" points="67,378.6 46.3,390.4 46.4,366.6 "/>
<polygon class="st0" points="25.7,378.4 13.7,399.1 30,394.7 "/>
<polygon class="st0" points="13.7,399.1 34.4,411.1 30,394.7 "/>
<polygon class="st0" points="34.4,411.1 46.3,390.4 30,394.7 "/>
<polygon class="st0" points="46.3,390.4 34.4,411.1 58.2,411.1 "/>
<polygon class="st0" points="90.9,378.6 67,378.6 78.8,399.3 "/>
<polygon class="st0" points="67,378.6 78.8,399.3 62.6,394.8 "/>
<polygon class="st0" points="79,357.9 67,378.6 90.9,378.6 "/>
<polygon class="st0" points="78.8,399.3 58.2,411.1 62.6,394.8 "/>
<polygon class="st0" points="58.2,411.1 46.3,390.4 62.6,394.8 "/>
<polygon class="st0" points="46.3,390.4 67,378.6 62.6,394.8 "/>
<polygon class="st0" points="111.5,390.6 99.4,411.3 123.3,411.4 "/>
<polygon class="st0" points="373.6,0.3 352.8,-11.7 357.2,4.7 "/>
<polygon class="st0" points="352.8,-11.7 340.9,9 357.2,4.7 "/>
<polygon class="st0" points="340.9,9 361.5,21 357.2,4.7 "/>
<polygon class="st0" points="361.5,21 373.6,0.3 357.2,4.7 "/>
<polygon class="st0" points="243.2,-0.1 222.5,-12 226.8,4.3 "/>
<polygon class="st0" points="222.5,-12 210.5,8.6 226.8,4.3 "/>
<polygon class="st0" points="210.5,8.6 231.1,20.6 226.8,4.3 "/>
<polygon class="st0" points="231.1,20.6 243.2,-0.1 226.8,4.3 "/>
<polygon class="st0" points="287.7,-11.9 263.8,-11.9 275.7,8.8 "/>
<polygon class="st0" points="263.8,-11.9 275.7,8.8 259.4,4.4 "/>
<polygon class="st0" points="275.7,8.8 255,20.6 259.4,4.4 "/>
<polygon class="st0" points="255,20.6 243.1,0 259.4,4.4 "/>
<polygon class="st0" points="243.1,0 263.8,-11.9 259.4,4.4 "/>
<polygon class="st0" points="275.7,8.8 275.6,32.7 255,20.6 "/>
<polygon class="st0" points="275.6,32.7 255,20.6 259.3,37 "/>
<polygon class="st0" points="296.3,20.8 275.6,32.7 275.7,8.8 "/>
<polygon class="st0" points="255,20.6 243,41.3 259.3,37 "/>
<polygon class="st0" points="243,41.3 263.6,53.3 259.3,37 "/>
<polygon class="st0" points="263.6,53.3 275.6,32.7 259.3,37 "/>
<polygon class="st0" points="308.3,0.2 287.7,-11.9 292,4.5 "/>
<polygon class="st0" points="287.7,-11.9 275.7,8.8 292,4.5 "/>
<polygon class="st0" points="275.7,8.8 296.3,20.8 292,4.5 "/>
<polygon class="st0" points="296.3,20.8 308.3,0.2 292,4.5 "/>
<polygon class="st0" points="320.1,20.8 296.3,20.8 308.2,41.4 "/>
<polygon class="st0" points="296.3,20.8 308.2,41.4 291.9,37.1 "/>
<polygon class="st0" points="308.3,0.2 296.3,20.8 320.1,20.8 "/>
<polygon class="st0" points="308.2,41.4 287.4,53.3 291.9,37.1 "/>
<polygon class="st0" points="287.4,53.3 275.6,32.7 291.8,37 "/>
<polygon class="st0" points="275.6,32.7 296.3,20.8 291.9,37.1 "/>
<polygon class="st0" points="308.2,41.4 308.1,65.2 287.4,53.3 "/>
<polygon class="st0" points="308.1,65.2 287.4,53.3 291.7,69.6 "/>
<polygon class="st0" points="328.8,53.5 308.1,65.2 308.2,41.4 "/>
<polygon class="st0" points="287.4,53.3 275.5,73.9 291.7,69.6 "/>
<polygon class="st0" points="275.5,73.9 296.1,86 291.7,69.6 "/>
<polygon class="st0" points="296.1,86 308.1,65.2 291.7,69.6 "/>
<polygon class="st0" points="352.8,-11.7 329,-11.7 340.9,8.9 "/>
<polygon class="st0" points="329,-11.7 340.9,8.9 324.5,4.5 "/>
<polygon class="st0" points="340.9,8.9 320.1,20.8 324.5,4.5 "/>
<polygon class="st0" points="320.1,20.8 308.3,0.2 324.5,4.5 "/>
<polygon class="st0" points="308.3,0.2 329,-11.7 324.5,4.5 "/>
<polygon class="st0" points="340.9,8.9 340.7,32.8 320.1,20.8 "/>
<polygon class="st0" points="340.7,32.8 320.1,20.8 324.4,37.1 "/>
<polygon class="st0" points="361.5,21 340.7,32.8 340.9,8.9 "/>
<polygon class="st0" points="320.1,20.8 308.2,41.4 324.4,37.1 "/>
<polygon class="st0" points="308.2,41.4 328.8,53.5 324.4,37.1 "/>
<polygon class="st0" points="328.8,53.5 340.7,32.8 324.4,37.1 "/>
<polygon class="st0" points="157.4,-12.3 133.6,-12.3 145.3,8.4 "/>
<polygon class="st0" points="133.6,-12.3 145.3,8.4 129.1,3.9 "/>
<polygon class="st0" points="145.3,8.4 124.7,20.2 129.1,3.9 "/>
<polygon class="st0" points="124.7,20.2 112.8,-0.5 129.1,3.9 "/>
<polygon class="st0" points="112.8,-0.5 133.6,-12.3 129.1,3.9 "/>
<polygon class="st0" points="145.3,8.4 145.3,32.2 124.7,20.2 "/>
<polygon class="st0" points="145.3,32.2 124.7,20.2 129,36.5 "/>
<polygon class="st0" points="166,20.3 145.3,32.2 145.3,8.4 "/>
<polygon class="st0" points="124.7,20.2 112.7,40.8 129,36.5 "/>
<polygon class="st0" points="112.7,40.8 133.4,52.9 129,36.5 "/>
<polygon class="st0" points="133.3,52.8 145.3,32.2 129,36.5 "/>
<polygon class="st0" points="178,-0.3 157.4,-12.3 161.7,4 "/>
<polygon class="st0" points="157.4,-12.3 145.3,8.4 161.7,4 "/>
<polygon class="st0" points="145.3,8.4 166,20.3 161.7,4 "/>
<polygon class="st0" points="166,20.3 178,-0.3 161.7,4 "/>
<polygon class="st0" points="189.9,20.4 166,20.3 177.8,41.1 "/>
<polygon class="st0" points="166,20.3 177.8,41.1 161.6,36.6 "/>
<polygon class="st0" points="178,-0.3 166,20.3 189.9,20.4 "/>
<polygon class="st0" points="177.8,41.1 157.2,52.9 161.6,36.6 "/>
<polygon class="st0" points="157.2,52.9 145.3,32.2 161.6,36.6 "/>
<polygon class="st0" points="145.3,32.2 166,20.3 161.6,36.6 "/>
<polygon class="st0" points="177.8,41.1 177.8,64.9 157.2,52.9 "/>
<polygon class="st0" points="177.8,64.9 157.2,52.9 161.5,69.2 "/>
<polygon class="st0" points="198.5,53 177.8,64.9 177.8,41.1 "/>
<polygon class="st0" points="157.2,52.9 145.2,73.5 161.5,69.2 "/>
<polygon class="st0" points="145.2,73.5 165.8,85.5 161.5,69.2 "/>
<polygon class="st0" points="165.8,85.5 177.8,64.9 161.5,69.2 "/>
<polygon class="st0" points="222.6,-12.1 198.7,-12.2 210.5,8.6 "/>
<polygon class="st0" points="198.7,-12.2 210.5,8.6 194.3,4.1 "/>
<polygon class="st0" points="210.5,8.6 189.9,20.4 194.3,4.1 "/>
<polygon class="st0" points="189.9,20.4 178,-0.3 194.3,4.1 "/>
<polygon class="st0" points="178,-0.3 198.7,-12.2 194.3,4.1 "/>
<polygon class="st0" points="210.5,8.6 210.5,32.4 189.9,20.4 "/>
<polygon class="st0" points="210.5,32.4 189.9,20.4 194.2,36.7 "/>
<polygon class="st0" points="231.2,20.5 210.5,32.4 210.5,8.6 "/>
<polygon class="st0" points="189.9,20.4 177.8,41.1 194.2,36.7 "/>
<polygon class="st0" points="177.8,41.1 198.5,53 194.2,36.7 "/>
<polygon class="st0" points="198.5,53 210.5,32.4 194.2,36.7 "/>
<polygon class="st0" points="222.4,53.1 198.5,53 210.3,73.8 "/>
<polygon class="st0" points="198.5,53 210.3,73.8 194.1,69.3 "/>
<polygon class="st0" points="210.5,32.4 198.5,53 222.4,53.1 "/>
<polygon class="st0" points="210.3,73.8 189.7,85.6 194.1,69.3 "/>
<polygon class="st0" points="189.7,85.6 177.8,64.9 194.1,69.3 "/>
<polygon class="st0" points="177.8,64.9 198.5,53 194.1,69.3 "/>
<polygon class="st0" points="210.3,73.8 210.3,97.6 189.7,85.6 "/>
<polygon class="st0" points="210.3,97.6 189.7,85.6 194,101.9 "/>
<polygon class="st0" points="231,85.7 210.3,97.6 210.3,73.8 "/>
<polygon class="st0" points="189.7,85.6 177.7,106.2 194,101.9 "/>
<polygon class="st0" points="177.7,106.2 198.3,118.2 194,101.9 "/>
<polygon class="st0" points="198.3,118.2 210.3,97.6 194,101.9 "/>
<polygon class="st0" points="255,20.6 231.1,20.6 243,41.3 "/>
<polygon class="st0" points="231.1,20.6 243,41.3 226.8,36.8 "/>
<polygon class="st0" points="243.2,-0.1 231.1,20.6 255,20.6 "/>
<polygon class="st0" points="243,41.3 222.4,53.1 226.8,36.8 "/>
<polygon class="st0" points="222.4,53.1 210.5,32.4 226.8,36.8 "/>
<polygon class="st0" points="210.5,32.4 231.1,20.6 226.8,36.8 "/>
<polygon class="st0" points="243,41.3 243,65.1 222.4,53.1 "/>
<polygon class="st0" points="243,65.1 222.4,53.1 226.7,69.4 "/>
<polygon class="st0" points="263.6,53.3 243,65.1 243,41.3 "/>
<polygon class="st0" points="222.4,53.1 210.3,73.8 226.7,69.4 "/>
<polygon class="st0" points="210.3,73.8 231,85.7 226.7,69.4 "/>
<polygon class="st0" points="231,85.7 243,65.1 226.7,69.4 "/>
<polygon class="st0" points="254.8,85.8 231,85.7 242.9,106.4 "/>
<polygon class="st0" points="231,85.7 242.9,106.4 226.6,102 "/>
<polygon class="st0" points="243,65.1 231,85.7 254.8,85.8 "/>
<polygon class="st0" points="242.9,106.4 222.1,118.2 226.6,102 "/>
<polygon class="st0" points="222.1,118.2 210.3,97.6 226.6,102 "/>
<polygon class="st0" points="210.3,97.6 231,85.7 226.6,102 "/>
<polygon class="st0" points="242.8,106.5 242.8,130.3 222.1,118.2 "/>
<polygon class="st0" points="242.8,130.3 222.1,118.2 226.5,134.6 "/>
<polygon class="st0" points="263.5,118.4 242.8,130.3 242.8,106.5 "/>
<polygon class="st0" points="222.1,118.2 210.2,138.9 226.5,134.6 "/>
<polygon class="st0" points="210.2,138.9 230.8,150.9 226.5,134.6 "/>
<polygon class="st0" points="230.8,150.9 242.8,130.3 226.5,134.6 "/>
<polygon class="st0" points="287.5,53.3 263.7,53.2 275.5,74 "/>
<polygon class="st0" points="263.7,53.2 275.5,74 259.3,69.5 "/>
<polygon class="st0" points="275.7,32.6 263.6,53.3 287.5,53.3 "/>
<polygon class="st0" points="275.5,74 254.8,85.8 259.3,69.5 "/>
<polygon class="st0" points="254.8,85.8 243,65.1 259.3,69.5 "/>
<polygon class="st0" points="243,65.1 263.7,53.2 259.3,69.5 "/>
<polygon class="st0" points="275.5,74 275.5,97.8 254.8,85.8 "/>
<polygon class="st0" points="275.5,97.8 254.8,85.8 259.2,102.1 "/>
<polygon class="st0" points="296.2,85.9 275.5,97.8 275.5,74 "/>
<polygon class="st0" points="254.8,85.8 242.8,106.5 259.2,102.1 "/>
<polygon class="st0" points="242.8,106.5 263.5,118.4 259.2,102.1 "/>
<polygon class="st0" points="263.5,118.4 275.5,97.8 259.2,102.1 "/>
<polygon class="st0" points="503.8,0.8 483.2,-11.2 487.5,5.1 "/>
<polygon class="st0" points="483.2,-11.2 471.1,9.5 487.5,5.1 "/>
<polygon class="st0" points="471.1,9.5 491.8,21.4 487.5,5.1 "/>
<polygon class="st0" points="491.8,21.4 503.8,0.8 487.5,5.1 "/>
<polygon class="st0" points="418,-11.4 394.1,-11.4 406,9.2 "/>
<polygon class="st0" points="394.1,-11.4 406,9.2 389.7,4.9 "/>
<polygon class="st0" points="406,9.2 385.3,21.1 389.7,4.9 "/>
<polygon class="st0" points="385.3,21.1 373.4,0.5 389.7,4.9 "/>
<polygon class="st0" points="373.4,0.5 394.1,-11.4 389.7,4.9 "/>
<polygon class="st0" points="406,9.2 405.9,33.1 385.3,21.1 "/>
<polygon class="st0" points="405.9,33.1 385.3,21.1 389.6,37.4 "/>
<polygon class="st0" points="426.6,21.3 405.9,33.1 406,9.2 "/>
<polygon class="st0" points="385.3,21.1 373.3,41.7 389.6,37.4 "/>
<polygon class="st0" points="373.3,41.7 393.9,53.8 389.6,37.4 "/>
<polygon class="st0" points="393.9,53.8 405.9,33.1 389.6,37.4 "/>
<polygon class="st0" points="438.6,0.6 418,-11.4 422.3,4.9 "/>
<polygon class="st0" points="418,-11.4 406,9.2 422.3,4.9 "/>
<polygon class="st0" points="406,9.2 426.6,21.3 422.3,4.9 "/>
<polygon class="st0" points="426.6,21.3 438.6,0.6 422.3,4.9 "/>
<polygon class="st0" points="450.5,21.3 426.6,21.3 438.5,41.9 "/>
<polygon class="st0" points="426.6,21.3 438.5,41.9 422.2,37.5 "/>
<polygon class="st0" points="438.6,0.6 426.6,21.3 450.5,21.3 "/>
<polygon class="st0" points="438.5,41.9 417.8,53.8 422.2,37.5 "/>
<polygon class="st0" points="417.8,53.8 405.9,33.1 422.2,37.5 "/>
<polygon class="st0" points="405.9,33.1 426.6,21.3 422.2,37.5 "/>
<polygon class="st0" points="438.5,41.9 438.4,65.7 417.8,53.8 "/>
<polygon class="st0" points="438.3,65.8 417.8,53.8 422.1,70.1 "/>
<polygon class="st0" points="459.1,53.9 438.3,65.8 438.5,41.9 "/>
<polygon class="st0" points="417.8,53.8 405.8,74.4 422.1,70.1 "/>
<polygon class="st0" points="405.8,74.4 426.4,86.5 422.1,70.1 "/>
<polygon class="st0" points="426.4,86.5 438.4,65.7 422.1,70.1 "/>
<polygon class="st0" points="483.2,-11.2 459.3,-11.2 471.2,9.4 "/>
<polygon class="st0" points="459.3,-11.2 471.2,9.4 454.9,5 "/>
<polygon class="st0" points="471.2,9.4 450.5,21.3 454.9,5 "/>
<polygon class="st0" points="450.5,21.3 438.6,0.6 454.9,5 "/>
<polygon class="st0" points="438.6,0.6 459.3,-11.2 454.9,5 "/>
<polygon class="st0" points="471.2,9.4 471,33.3 450.5,21.3 "/>
<polygon class="st0" points="471,33.3 450.5,21.3 454.8,37.6 "/>
<polygon class="st0" points="491.8,21.4 471,33.3 471.2,9.4 "/>
<polygon class="st0" points="450.5,21.3 438.5,41.9 454.8,37.6 "/>
<polygon class="st0" points="438.5,41.9 459.1,53.9 454.8,37.6 "/>
<polygon class="st0" points="459.1,53.9 471,33.3 454.8,37.6 "/>
<polygon class="st0" points="483,54 459.1,53.9 471,74.6 "/>
<polygon class="st0" points="459.1,53.9 471,74.6 454.7,70.2 "/>
<polygon class="st0" points="471,33.3 459.1,53.9 483,54 "/>
<polygon class="st0" points="471,74.6 450.3,86.5 454.7,70.2 "/>
<polygon class="st0" points="450.3,86.5 438.3,65.8 454.7,70.2 "/>
<polygon class="st0" points="438.3,65.8 459.1,53.9 454.7,70.2 "/>
<polygon class="st0" points="471,74.6 470.8,98.5 450.3,86.5 "/>
<polygon class="st0" points="470.8,98.5 450.3,86.5 454.6,102.8 "/>
<polygon class="st0" points="491.6,86.6 470.8,98.5 471,74.6 "/>
<polygon class="st0" points="450.3,86.5 438.3,107.1 454.6,102.8 "/>
<polygon class="st0" points="438.3,107.1 458.9,119.1 454.6,102.8 "/>
<polygon class="st0" points="458.9,119.1 470.8,98.5 454.6,102.8 "/>
<polygon class="st0" points="491.8,21.4 503.7,42.1 487.4,37.7 "/>
<polygon class="st0" points="503.7,42.1 483,54 487.4,37.7 "/>
<polygon class="st0" points="483,54 471,33.3 487.4,37.7 "/>
<polygon class="st0" points="471,33.3 491.8,21.4 487.4,37.7 "/>
<polygon class="st0" points="503.7,42.1 503.5,66 483,54 "/>
<polygon class="st0" points="503.5,66 483,54 487.3,70.3 "/>
<polygon class="st0" points="483,54 471,74.6 487.3,70.3 "/>
<polygon class="st0" points="471,74.6 491.6,86.6 487.3,70.3 "/>
<polygon class="st0" points="491.6,86.6 503.5,66 487.3,70.3 "/>
<polygon class="st0" points="491.6,86.6 503.5,107.3 487.2,102.9 "/>
<polygon class="st0" points="503.5,107.3 482.8,119.2 487.2,102.9 "/>
<polygon class="st0" points="482.8,119.2 470.8,98.5 487.2,102.9 "/>
<polygon class="st0" points="470.8,98.5 491.6,86.6 487.2,102.9 "/>
<polygon class="st0" points="503.5,107.3 503.4,131.1 482.8,119.2 "/>
<polygon class="st0" points="503.4,131.1 482.8,119.2 487,135.5 "/>
<polygon class="st0" points="482.8,119.2 470.8,139.8 487,135.5 "/>
<polygon class="st0" points="470.8,139.8 491.3,151.8 487,135.5 "/>
<polygon class="st0" points="491.3,151.8 503.4,131.1 487,135.5 "/>
<polygon class="st0" points="352.6,53.6 328.7,53.6 340.6,74.2 "/>
<polygon class="st0" points="328.7,53.6 340.6,74.2 324.3,69.8 "/>
<polygon class="st0" points="340.7,32.9 328.7,53.6 352.6,53.6 "/>
<polygon class="st0" points="340.6,74.2 319.9,86.1 324.3,69.8 "/>
<polygon class="st0" points="319.9,86.1 308,65.4 324.3,69.8 "/>
<polygon class="st0" points="308,65.4 328.7,53.6 324.3,69.8 "/>
<polygon class="st0" points="340.6,74.2 340.5,98.1 319.9,86.1 "/>
<polygon class="st0" points="340.5,98.1 319.9,86.1 324.2,102.4 "/>
<polygon class="st0" points="361.2,86.2 340.5,98.1 340.6,74.2 "/>
<polygon class="st0" points="319.9,86.1 307.9,106.7 324.2,102.4 "/>
<polygon class="st0" points="307.9,106.7 328.5,118.7 324.2,102.4 "/>
<polygon class="st0" points="328.5,118.7 340.5,98.1 324.2,102.4 "/>
<polygon class="st0" points="385.3,21.1 361.4,21.1 373.3,41.7 "/>
<polygon class="st0" points="361.4,21.1 373.3,41.7 357,37.3 "/>
<polygon class="st0" points="373.4,0.4 361.4,21.1 385.3,21.1 "/>
<polygon class="st0" points="373.3,41.7 352.6,53.6 357,37.3 "/>
<polygon class="st0" points="352.6,53.6 340.7,32.9 357,37.3 "/>
<polygon class="st0" points="340.7,32.9 361.4,21.1 357,37.3 "/>
<polygon class="st0" points="373.3,41.7 373.2,65.6 352.6,53.6 "/>
<polygon class="st0" points="373.2,65.6 352.6,53.6 356.9,69.9 "/>
<polygon class="st0" points="393.9,53.7 373.2,65.6 373.3,41.7 "/>
<polygon class="st0" points="352.6,53.6 340.6,74.2 356.9,69.9 "/>
<polygon class="st0" points="340.6,74.2 361.2,86.2 356.9,69.9 "/>
<polygon class="st0" points="361.2,86.2 373.2,65.6 356.9,69.9 "/>
<polygon class="st0" points="385.1,86.3 361.2,86.2 373.1,106.9 "/>
<polygon class="st0" points="361.2,86.2 373.1,106.9 356.8,102.5 "/>
<polygon class="st0" points="373.2,65.6 361.2,86.2 385.1,86.3 "/>
<polygon class="st0" points="373.1,106.9 352.4,118.8 356.8,102.5 "/>
<polygon class="st0" points="352.4,118.8 340.5,98.1 356.8,102.5 "/>
<polygon class="st0" points="340.5,98.1 361.2,86.2 356.8,102.5 "/>
<polygon class="st0" points="373.1,106.9 373,130.7 352.4,118.8 "/>
<polygon class="st0" points="373,130.7 352.4,118.8 356.7,135.1 "/>
<polygon class="st0" points="393.7,118.9 373,130.7 373.1,106.9 "/>
<polygon class="st0" points="352.4,118.8 340.4,139.4 356.7,135.1 "/>
<polygon class="st0" points="340.4,139.4 361,151.4 356.7,135.1 "/>
<polygon class="st0" points="361,151.4 373,130.7 356.7,135.1 "/>
<polygon class="st0" points="417.8,53.8 393.9,53.7 405.8,74.4 "/>
<polygon class="st0" points="393.9,53.7 405.8,74.4 389.5,70 "/>
<polygon class="st0" points="405.9,33.1 393.9,53.7 417.8,53.8 "/>
<polygon class="st0" points="405.8,74.4 385.1,86.3 389.5,70 "/>
<polygon class="st0" points="385.1,86.3 373.2,65.6 389.5,70 "/>
<polygon class="st0" points="373.2,65.6 393.9,53.7 389.5,70 "/>
<polygon class="st0" points="405.8,74.4 405.6,98.3 385.1,86.3 "/>
<polygon class="st0" points="405.6,98.3 385.1,86.3 389.4,102.6 "/>
<polygon class="st0" points="426.4,86.4 405.6,98.3 405.8,74.4 "/>
<polygon class="st0" points="385.1,86.3 373.1,106.9 389.4,102.6 "/>
<polygon class="st0" points="373.1,106.9 393.7,118.9 389.4,102.6 "/>
<polygon class="st0" points="393.7,118.9 405.6,98.3 389.4,102.6 "/>
<polygon class="st0" points="417.6,119 393.7,118.9 405.6,139.6 "/>
<polygon class="st0" points="393.7,118.9 405.6,139.6 389.3,135.2 "/>
<polygon class="st0" points="405.6,98.3 393.7,118.9 417.6,119 "/>
<polygon class="st0" points="405.6,139.6 384.9,151.5 389.3,135.2 "/>
<polygon class="st0" points="384.9,151.5 372.9,130.8 389.3,135.2 "/>
<polygon class="st0" points="372.9,130.8 393.7,118.9 389.3,135.2 "/>
<polygon class="st0" points="405.6,139.6 405.4,163.5 384.9,151.5 "/>
<polygon class="st0" points="405.4,163.5 384.9,151.5 389.2,167.8 "/>
<polygon class="st0" points="426.2,151.6 405.4,163.5 405.6,139.6 "/>
<polygon class="st0" points="384.9,151.5 372.9,172.1 389.2,167.8 "/>
<polygon class="st0" points="372.9,172.1 393.4,184.1 389.2,167.8 "/>
<polygon class="st0" points="393.4,184.1 405.4,163.5 389.2,167.8 "/>
<polygon class="st0" points="450.2,86.4 426.4,86.4 438.3,107.1 "/>
<polygon class="st0" points="426.4,86.4 438.3,107.1 422,102.7 "/>
<polygon class="st0" points="438.3,65.8 426.4,86.4 450.2,86.4 "/>
<polygon class="st0" points="438.3,107.1 417.6,119 422,102.7 "/>
<polygon class="st0" points="417.6,119 405.6,98.3 422,102.7 "/>
<polygon class="st0" points="405.6,98.3 426.4,86.4 422,102.7 "/>
<polygon class="st0" points="438.3,107.1 438.1,131 417.6,119 "/>
<polygon class="st0" points="438.1,131 417.6,119 421.9,135.3 "/>
<polygon class="st0" points="458.9,119.1 438.1,131 438.3,107.1 "/>
<polygon class="st0" points="417.6,119 405.6,139.6 421.9,135.3 "/>
<polygon class="st0" points="405.6,139.6 426.2,151.6 421.9,135.3 "/>
<polygon class="st0" points="426.2,151.6 438.1,131 421.9,135.3 "/>
<polygon class="st0" points="450,151.6 426.2,151.6 438.1,172.3 "/>
<polygon class="st0" points="426.2,151.6 438.1,172.3 421.8,167.9 "/>
<polygon class="st0" points="438.1,131 426.2,151.6 450,151.6 "/>
<polygon class="st0" points="438.1,172.3 417.3,184.1 421.8,167.9 "/>
<polygon class="st0" points="417.3,184.1 405.4,163.5 421.8,167.9 "/>
<polygon class="st0" points="405.4,163.5 426.2,151.6 421.8,167.9 "/>
<polygon class="st0" points="438.1,172.3 438,196.1 417.3,184.1 "/>
<polygon class="st0" points="438,196.1 417.3,184.1 421.6,200.5 "/>
<polygon class="st0" points="458.6,184.3 438,196.1 438.1,172.3 "/>
<polygon class="st0" points="417.3,184.1 405.4,204.8 421.6,200.5 "/>
<polygon class="st0" points="405.4,204.8 425.9,216.8 421.6,200.5 "/>
<polygon class="st0" points="425.9,216.8 438,196.1 421.6,200.5 "/>
<polygon class="st0" points="482.7,119.1 458.9,119.1 470.8,139.8 "/>
<polygon class="st0" points="458.9,119.1 470.8,139.8 454.5,135.4 "/>
<polygon class="st0" points="470.8,98.5 458.9,119.1 482.7,119.1 "/>
<polygon class="st0" points="470.8,139.8 450,151.6 454.5,135.4 "/>
<polygon class="st0" points="450,151.6 438.1,131 454.5,135.4 "/>
<polygon class="st0" points="438.1,131 458.9,119.1 454.5,135.4 "/>
<polygon class="st0" points="470.8,139.8 470.6,163.7 450,151.6 "/>
<polygon class="st0" points="470.6,163.7 450,151.6 454.3,168 "/>
<polygon class="st0" points="491.3,151.8 470.6,163.7 470.8,139.8 "/>
<polygon class="st0" points="450,151.6 438.1,172.3 454.3,168 "/>
<polygon class="st0" points="438.1,172.3 458.6,184.3 454.3,168 "/>
<polygon class="st0" points="458.6,184.3 470.6,163.7 454.3,168 "/>
<polygon class="st0" points="482.5,184.3 458.6,184.3 470.5,204.9 "/>
<polygon class="st0" points="458.6,184.3 470.5,204.9 454.2,200.6 "/>
<polygon class="st0" points="470.6,163.7 458.6,184.3 482.5,184.3 "/>
<polygon class="st0" points="470.5,204.9 449.8,216.8 454.2,200.6 "/>
<polygon class="st0" points="449.8,216.8 438,196.1 454.2,200.6 "/>
<polygon class="st0" points="438,196.1 458.6,184.3 454.2,200.6 "/>
<polygon class="st0" points="470.5,204.9 470.4,228.8 449.8,216.8 "/>
<polygon class="st0" points="470.4,228.8 449.8,216.8 454.1,233.2 "/>
<polygon class="st0" points="491.1,217 470.4,228.8 470.5,204.9 "/>
<polygon class="st0" points="449.8,216.8 437.9,237.5 454.1,233.2 "/>
<polygon class="st0" points="437.9,237.5 458.4,249.5 454.1,233.2 "/>
<polygon class="st0" points="458.4,249.5 470.4,228.8 454.1,233.1 "/>
<polygon class="st0" points="491.3,151.8 503.2,172.4 486.9,168.1 "/>
<polygon class="st0" points="503.2,172.4 482.5,184.3 486.9,168 "/>
<polygon class="st0" points="482.5,184.3 470.6,163.7 486.9,168 "/>
<polygon class="st0" points="470.6,163.7 491.3,151.8 486.9,168.1 "/>
<polygon class="st0" points="503.2,172.4 503.1,196.3 482.5,184.3 "/>
<polygon class="st0" points="503.1,196.3 482.5,184.3 486.8,200.6 "/>
<polygon class="st0" points="482.5,184.3 470.5,204.9 486.8,200.6 "/>
<polygon class="st0" points="470.5,204.9 491.1,217 486.8,200.6 "/>
<polygon class="st0" points="491.1,217 503.1,196.3 486.8,200.6 "/>
<polygon class="st0" points="491.1,217 503,237.6 486.7,233.2 "/>
<polygon class="st0" points="503,237.6 482.3,249.5 486.7,233.2 "/>
<polygon class="st0" points="482.3,249.5 470.5,228.8 486.7,233.2 "/>
<polygon class="st0" points="470.5,228.8 491.1,217 486.7,233.2 "/>
<polygon class="st0" points="503,237.6 502.9,261.5 482.3,249.5 "/>
<polygon class="st0" points="502.9,261.5 482.3,249.5 486.6,265.8 "/>
<polygon class="st0" points="482.3,249.5 470.3,270.1 486.6,265.8 "/>
<polygon class="st0" points="470.3,270.1 490.9,282.2 486.6,265.8 "/>
<polygon class="st0" points="490.9,282.2 502.9,261.5 486.6,265.8 "/>
<polygon class="st0" points="287.2,118.5 263.4,118.5 275.2,139.2 "/>
<polygon class="st0" points="263.4,118.5 275.2,139.2 259,134.8 "/>
<polygon class="st0" points="275.4,97.9 263.4,118.5 287.2,118.5 "/>
<polygon class="st0" points="275.2,139.2 254.5,151 259,134.8 "/>
<polygon class="st0" points="254.5,151 242.7,130.4 259,134.8 "/>
<polygon class="st0" points="242.7,130.4 263.4,118.5 259,134.8 "/>
<polygon class="st0" points="275.2,139.2 275.1,163 254.5,151 "/>
<polygon class="st0" points="275.1,163 254.5,151 258.9,167.4 "/>
<polygon class="st0" points="295.9,151.2 275.1,163 275.2,139.2 "/>
<polygon class="st0" points="254.5,151 242.6,171.7 258.9,167.4 "/>
<polygon class="st0" points="242.6,171.7 263.2,183.7 258.9,167.4 "/>
<polygon class="st0" points="263.2,183.7 275.1,163 258.8,167.3 "/>
<polygon class="st0" points="319.9,86.1 296,86 307.9,106.7 "/>
<polygon class="st0" points="296,86 307.9,106.7 291.7,102.3 "/>
<polygon class="st0" points="308.1,65.4 296,86 319.9,86.1 "/>
<polygon class="st0" points="307.9,106.7 287.2,118.5 291.6,102.2 "/>
<polygon class="st0" points="287.2,118.5 275.4,97.9 291.6,102.2 "/>
<polygon class="st0" points="275.4,97.9 296,86 291.7,102.3 "/>
<polygon class="st0" points="307.9,106.7 307.8,130.5 287.2,118.5 "/>
<polygon class="st0" points="307.8,130.5 287.2,118.5 291.5,134.8 "/>
<polygon class="st0" points="328.5,118.7 307.8,130.5 307.9,106.7 "/>
<polygon class="st0" points="287.2,118.5 275.2,139.2 291.5,134.8 "/>
<polygon class="st0" points="275.2,139.2 295.9,151.2 291.5,134.8 "/>
<polygon class="st0" points="295.9,151.2 307.8,130.5 291.5,134.8 "/>
<polygon class="st0" points="319.7,151.2 295.9,151.2 307.7,171.9 "/>
<polygon class="st0" points="295.9,151.2 307.7,171.9 291.4,167.4 "/>
<polygon class="st0" points="307.8,130.5 295.9,151.2 319.7,151.2 "/>
<polygon class="st0" points="307.7,171.9 287,183.7 291.4,167.4 "/>
<polygon class="st0" points="287,183.7 275.2,163.1 291.4,167.4 "/>
<polygon class="st0" points="275.2,163.1 295.9,151.2 291.4,167.4 "/>
<polygon class="st0" points="307.7,171.9 307.6,195.7 287,183.7 "/>
<polygon class="st0" points="307.6,195.7 287,183.7 291.3,200 "/>
<polygon class="st0" points="328.3,183.8 307.6,195.7 307.7,171.9 "/>
<polygon class="st0" points="287,183.7 275,204.3 291.3,200 "/>
<polygon class="st0" points="275,204.3 295.7,216.4 291.3,200 "/>
<polygon class="st0" points="295.7,216.4 307.6,195.7 291.3,200 "/>
<polygon class="st0" points="352.4,118.7 328.5,118.7 340.4,139.4 "/>
<polygon class="st0" points="328.5,118.7 340.4,139.4 324.1,134.9 "/>
<polygon class="st0" points="340.5,98 328.5,118.7 352.4,118.7 "/>
<polygon class="st0" points="340.4,139.4 319.7,151.2 324.1,134.9 "/>
<polygon class="st0" points="319.7,151.2 307.8,130.5 324.1,134.9 "/>
<polygon class="st0" points="307.8,130.5 328.5,118.7 324.1,134.9 "/>
<polygon class="st0" points="340.4,139.4 340.3,163.2 319.7,151.2 "/>
<polygon class="st0" points="340.3,163.2 319.7,151.2 324,167.5 "/>
<polygon class="st0" points="361,151.3 340.3,163.2 340.4,139.4 "/>
<polygon class="st0" points="319.7,151.2 307.7,171.9 324,167.5 "/>
<polygon class="st0" points="307.7,171.9 328.4,183.9 324,167.5 "/>
<polygon class="st0" points="328.4,183.9 340.3,163.2 324,167.5 "/>
<polygon class="st0" points="352.2,183.9 328.4,183.9 340.2,204.6 "/>
<polygon class="st0" points="328.4,183.9 340.2,204.6 323.9,200.1 "/>
<polygon class="st0" points="340.3,163.2 328.4,183.9 352.2,183.9 "/>
<polygon class="st0" points="340.2,204.6 319.5,216.4 323.9,200.1 "/>
<polygon class="st0" points="319.5,216.4 307.6,195.7 323.9,200.1 "/>
<polygon class="st0" points="307.6,195.7 328.4,183.9 323.9,200.1 "/>
<polygon class="st0" points="340.2,204.6 340.1,228.4 319.5,216.4 "/>
<polygon class="st0" points="340.1,228.4 319.5,216.4 323.8,232.7 "/>
<polygon class="st0" points="360.8,216.5 340.1,228.4 340.2,204.6 "/>
<polygon class="st0" points="319.5,216.4 307.5,237 323.8,232.7 "/>
<polygon class="st0" points="307.5,237 328.1,249 323.8,232.7 "/>
<polygon class="st0" points="328.1,249 340.1,228.4 323.8,232.7 "/>
<polygon class="st0" points="384.9,151.4 361,151.4 372.9,172.1 "/>
<polygon class="st0" points="361,151.4 372.9,172.1 356.6,167.6 "/>
<polygon class="st0" points="373,130.7 361,151.4 384.9,151.5 "/>
<polygon class="st0" points="372.9,172.1 352.2,183.9 356.6,167.6 "/>
<polygon class="st0" points="352.2,183.9 340.3,163.2 356.6,167.6 "/>
<polygon class="st0" points="340.3,163.2 361,151.4 356.6,167.6 "/>
<polygon class="st0" points="372.9,172.1 372.8,195.9 352.2,183.9 "/>
<polygon class="st0" points="372.8,195.9 352.2,183.9 356.5,200.2 "/>
<polygon class="st0" points="393.4,184.1 372.8,195.9 372.9,172.1 "/>
<polygon class="st0" points="352.2,183.9 340.2,204.6 356.5,200.2 "/>
<polygon class="st0" points="340.2,204.6 360.8,216.5 356.5,200.2 "/>
<polygon class="st0" points="360.8,216.5 372.8,195.9 356.5,200.2 "/>
<polygon class="st0" points="384.7,216.6 360.8,216.5 372.7,237.2 "/>
<polygon class="st0" points="360.8,216.5 372.7,237.2 356.4,232.8 "/>
<polygon class="st0" points="372.8,195.9 360.8,216.5 384.7,216.6 "/>
<polygon class="st0" points="372.7,237.2 352,249.1 356.4,232.8 "/>
<polygon class="st0" points="352,249.1 340.1,228.4 356.4,232.8 "/>
<polygon class="st0" points="340.1,228.4 360.8,216.5 356.4,232.8 "/>
<polygon class="st0" points="372.7,237.3 372.6,261.1 352,249.1 "/>
<polygon class="st0" points="372.6,261.1 352,249.1 356.3,265.4 "/>
<polygon class="st0" points="393.3,249.2 372.6,261.1 372.7,237.3 "/>
<polygon class="st0" points="352,249.1 340,269.7 356.3,265.4 "/>
<polygon class="st0" points="340,269.7 360.6,281.7 356.3,265.4 "/>
<polygon class="st0" points="360.6,281.7 372.6,261.1 356.3,265.4 "/>
<polygon class="st0" points="417.4,184.1 393.5,184 405.4,204.8 "/>
<polygon class="st0" points="393.5,184 405.4,204.8 389.1,200.3 "/>
<polygon class="st0" points="405.5,163.4 393.4,184.1 417.4,184.1 "/>
<polygon class="st0" points="405.4,204.8 384.7,216.6 389.1,200.3 "/>
<polygon class="st0" points="384.7,216.6 372.8,195.9 389.1,200.3 "/>
<polygon class="st0" points="372.8,195.9 393.5,184 389.1,200.3 "/>
<polygon class="st0" points="405.4,204.8 405.3,228.6 384.7,216.6 "/>
<polygon class="st0" points="405.3,228.6 384.7,216.6 389,232.9 "/>
<polygon class="st0" points="426,216.7 405.3,228.6 405.4,204.8 "/>
<polygon class="st0" points="384.7,216.6 372.7,237.3 389,232.9 "/>
<polygon class="st0" points="372.7,237.3 393.3,249.2 389,232.9 "/>
<polygon class="st0" points="393.3,249.2 405.3,228.6 389,232.9 "/>
<polygon class="st0" points="417.1,249.3 393.3,249.2 405.2,269.9 "/>
<polygon class="st0" points="393.3,249.2 405.2,269.9 388.9,265.5 "/>
<polygon class="st0" points="405.3,228.6 393.3,249.2 417.1,249.3 "/>
<polygon class="st0" points="405.2,269.9 384.4,281.8 388.9,265.5 "/>
<polygon class="st0" points="384.4,281.8 372.6,261.1 388.9,265.5 "/>
<polygon class="st0" points="372.6,261.1 393.3,249.2 388.9,265.5 "/>
<polygon class="st0" points="405.2,269.9 405.1,293.8 384.4,281.8 "/>
<polygon class="st0" points="405.1,293.8 384.4,281.8 388.8,298.1 "/>
<polygon class="st0" points="425.8,281.9 405.1,293.8 405.2,269.9 "/>
<polygon class="st0" points="384.4,281.8 372.5,302.4 388.8,298.1 "/>
<polygon class="st0" points="372.5,302.4 393.1,314.4 388.8,298.1 "/>
<polygon class="st0" points="393.1,314.4 405.1,293.8 388.8,298.1 "/>
<polygon class="st0" points="449.8,216.8 426,216.7 437.9,237.5 "/>
<polygon class="st0" points="426,216.7 437.9,237.5 421.6,233 "/>
<polygon class="st0" points="438,196.1 426,216.7 449.8,216.8 "/>
<polygon class="st0" points="437.9,237.5 417.1,249.3 421.6,233 "/>
<polygon class="st0" points="417.1,249.3 405.3,228.6 421.6,233 "/>
<polygon class="st0" points="405.3,228.6 426,216.7 421.6,233 "/>
<polygon class="st0" points="437.9,237.5 437.8,261.3 417.1,249.3 "/>
<polygon class="st0" points="437.8,261.3 417.1,249.3 421.5,265.6 "/>
<polygon class="st0" points="458.5,249.4 437.8,261.3 437.9,237.5 "/>
<polygon class="st0" points="417.1,249.3 405.2,269.9 421.5,265.6 "/>
<polygon class="st0" points="405.2,269.9 425.8,281.9 421.5,265.6 "/>
<polygon class="st0" points="425.8,281.9 437.8,261.3 421.5,265.6 "/>
<polygon class="st0" points="449.6,282 425.8,281.9 437.6,302.5 "/>
<polygon class="st0" points="425.8,281.9 437.6,302.5 421.4,298.2 "/>
<polygon class="st0" points="437.8,261.3 425.8,281.9 449.6,282 "/>
<polygon class="st0" points="437.6,302.5 416.9,314.5 421.4,298.2 "/>
<polygon class="st0" points="416.9,314.5 405.1,293.8 421.4,298.2 "/>
<polygon class="st0" points="405.1,293.8 425.8,281.9 421.4,298.2 "/>
<polygon class="st0" points="437.6,302.5 437.6,326.5 416.9,314.5 "/>
<polygon class="st0" points="458.3,314.6 437.6,326.5 437.6,302.5 "/>
<polygon class="st0" points="482.3,249.5 458.5,249.4 470.3,270.1 "/>
<polygon class="st0" points="458.5,249.4 470.3,270.1 454.1,265.7 "/>
<polygon class="st0" points="470.5,228.8 458.5,249.4 482.3,249.5 "/>
<polygon class="st0" points="470.3,270.1 449.6,282 454.1,265.7 "/>
<polygon class="st0" points="449.6,282 437.8,261.3 454.1,265.7 "/>
<polygon class="st0" points="437.8,261.3 458.5,249.4 454.1,265.7 "/>
<polygon class="st0" points="470.3,270.1 470.2,293.9 449.6,282 "/>
<polygon class="st0" points="470.2,293.9 449.6,282 453.9,298.2 "/>
<polygon class="st0" points="491,282.1 470.2,293.9 470.3,270.1 "/>
<polygon class="st0" points="449.6,282 437.6,302.5 453.9,298.2 "/>
<polygon class="st0" points="437.7,302.6 458.3,314.6 453.9,298.2 "/>
<polygon class="st0" points="458.3,314.6 470.2,293.9 453.9,298.2 "/>
<polygon class="st0" points="482.1,314.7 458.3,314.6 470.1,335.2 "/>
<polygon class="st0" points="470.2,293.9 458.3,314.6 482.1,314.7 "/>
<polygon class="st0" points="470.1,335.2 470,359.1 449.4,347.2 "/>
<polygon class="st0" points="470,359.1 449.4,347.2 453.7,363.4 "/>
<polygon class="st0" points="490.8,347.3 470,359.1 470.1,335.2 "/>
<polygon class="st0" points="449.4,347.2 437.4,367.7 453.7,363.4 "/>
<polygon class="st0" points="437.4,367.7 458.1,379.8 453.7,363.4 "/>
<polygon class="st0" points="458.1,379.8 470,359.1 453.7,363.4 "/>
<polygon class="st0" points="491,282.1 502.8,302.8 486.5,298.4 "/>
<polygon class="st0" points="502.8,302.8 482.1,314.7 486.5,298.4 "/>
<polygon class="st0" points="482.1,314.7 470.2,293.9 486.5,298.4 "/>
<polygon class="st0" points="470.2,293.9 491,282.1 486.5,298.4 "/>
<polygon class="st0" points="502.8,302.8 502.7,326.7 482.1,314.7 "/>
<polygon class="st0" points="490.8,347.3 502.6,367.9 486.3,363.5 "/>
<polygon class="st0" points="502.6,367.9 481.9,379.9 486.3,363.5 "/>
<polygon class="st0" points="481.9,379.9 470,359.1 486.3,363.5 "/>
<polygon class="st0" points="470,359.1 490.8,347.3 486.3,363.5 "/>
<polygon class="st0" points="502.6,367.9 502.5,391.8 481.9,379.9 "/>
<polygon class="st0" points="502.5,391.8 481.9,379.9 486.2,396.1 "/>
<polygon class="st0" points="481.9,379.9 469.9,400.4 486.2,396.1 "/>
<polygon class="st0" points="469.9,400.4 490.5,412.4 486.2,396.1 "/>
<polygon class="st0" points="490.5,412.4 502.5,391.8 486.2,396.1 "/>
<polygon class="st1" points="100.7,20.2 112.7,40.9 96.3,36.5 "/>
<polygon class="st1" points="112.7,40.9 91.9,52.8 96.3,36.5 "/>
<polygon class="st1" points="91.9,52.8 80.1,32 96.3,36.5 "/>
<polygon class="st1" points="80.1,32 100.7,20.2 96.3,36.5 "/>
<polygon class="st1" points="112.6,64.7 91.9,52.8 96.2,69.1 "/>
<polygon class="st1" points="91.9,52.8 80,73.4 96.2,69.1 "/>
<polygon class="st1" points="80,73.4 100.5,85.4 96.2,69.1 "/>
<polygon class="st1" points="100.5,85.4 112.6,64.7 96.2,69.1 "/>
<polygon class="st1" points="100.5,85.4 112.4,106.1 96.1,101.7 "/>
<polygon class="st1" points="112.4,106.1 91.8,117.9 96.1,101.7 "/>
<polygon class="st1" points="91.8,117.9 79.9,97.2 96.1,101.7 "/>
<polygon class="st1" points="79.9,97.2 100.5,85.4 96.1,101.7 "/>
<polygon class="st1" points="112.4,129.9 91.8,117.9 96.1,134.2 "/>
<polygon class="st1" points="91.8,117.9 79.7,138.6 96.1,134.2 "/>
<polygon class="st1" points="79.7,138.6 100.4,150.5 96.1,134.2 "/>
<polygon class="st1" points="100.4,150.5 112.4,129.9 96.1,134.2 "/>
<polygon class="st1" points="100.4,150.5 112.3,171.2 96,166.8 "/>
<polygon class="st1" points="112.3,171.2 91.5,183 96,166.8 "/>
<polygon class="st1" points="91.5,183 79.7,162.4 96,166.8 "/>
<polygon class="st1" points="79.7,162.4 100.4,150.5 96,166.8 "/>
<polygon class="st1" points="112.2,195.1 91.5,183 95.9,199.4 "/>
<polygon class="st1" points="91.5,183 79.6,203.7 95.9,199.4 "/>
<polygon class="st1" points="79.6,203.7 100.2,215.7 95.9,199.4 "/>
<polygon class="st1" points="100.2,215.7 112.2,195.1 95.9,199.4 "/>
<polygon class="st1" points="100.2,215.7 112.1,236.4 95.8,232 "/>
<polygon class="st1" points="112.1,236.4 91.3,248.2 95.8,232 "/>
<polygon class="st1" points="91.3,248.2 79.5,227.6 95.8,232 "/>
<polygon class="st1" points="79.5,227.6 100.2,215.7 95.8,232 "/>
<polygon class="st1" points="112,260.2 91.3,248.2 95.7,264.6 "/>
<polygon class="st1" points="91.3,248.2 79.4,268.9 95.7,264.6 "/>
<polygon class="st1" points="79.4,268.9 100,280.9 95.7,264.6 "/>
<polygon class="st1" points="100,280.9 112,260.2 95.7,264.6 "/>
<polygon class="st1" points="99.9,280.9 111.8,301.6 95.4,297.2 "/>
<polygon class="st1" points="111.8,301.6 91,313.5 95.4,297.2 "/>
<polygon class="st1" points="91,313.5 79.1,292.8 95.4,297.2 "/>
<polygon class="st1" points="79.1,292.8 99.9,280.9 95.4,297.2 "/>
<polygon class="st1" points="99.6,346.1 111.5,366.8 95.2,362.4 "/>
<polygon class="st1" points="111.5,366.8 90.8,378.7 95.2,362.4 "/>
<polygon class="st1" points="90.8,378.7 78.9,358 95.2,362.4 "/>
<polygon class="st1" points="78.9,358 99.6,346.1 95.2,362.4 "/>
<polygon class="st1" points="111.5,390.6 90.8,378.7 95.1,395 "/>
<polygon class="st1" points="90.8,378.7 78.8,399.3 95.1,395 "/>
<polygon class="st1" points="78.8,399.3 99.4,411.3 95.1,395 "/>
<polygon class="st1" points="99.4,411.3 111.5,390.6 95.1,395 "/>
<polygon class="st1" points="112.8,-0.5 92.2,-12.5 96.5,3.8 "/>
<polygon class="st1" points="92.2,-12.5 80.2,8.1 96.5,3.8 "/>
<polygon class="st1" points="80.2,8.1 100.9,20.2 96.5,3.8 "/>
<polygon class="st1" points="100.9,20.2 112.8,-0.5 96.5,3.8 "/>
<polygon class="st1" points="46.6,325.1 25.9,313.2 30.2,329.5 "/>
<polygon class="st1" points="25.9,313.2 13.9,333.8 30.2,329.5 "/>
<polygon class="st1" points="13.9,333.8 34.6,345.9 30.2,329.5 "/>
<polygon class="st1" points="34.6,345.9 46.6,325.1 30.2,329.5 "/>
<polygon class="st1" points="2.2,313.1 14,333.9 -2.2,329.4 "/>
<polygon class="st1" points="14,333.9 -6.7,345.6 -2.2,329.4 "/>
<polygon class="st1" points="-6.7,345.6 -18.6,325 -2.2,329.4 "/>
<polygon class="st1" points="-18.6,325 2.2,313.1 -2.2,329.4 "/>
<polygon class="st1" points="307.2,326.1 286.6,314 290.9,330.4 "/>
<polygon class="st1" points="286.6,314 274.6,334.8 290.9,330.4 "/>
<polygon class="st1" points="274.6,334.8 295.2,346.7 290.9,330.4 "/>
<polygon class="st1" points="295.2,346.7 307.2,326.1 290.9,330.4 "/>
<polygon class="st1" points="327.9,314.3 339.7,334.9 323.5,330.5 "/>
<polygon class="st1" points="339.7,334.9 319.1,346.7 323.5,330.5 "/>
<polygon class="st1" points="319.1,346.7 307.2,326.1 323.5,330.5 "/>
<polygon class="st1" points="307.2,326.1 327.9,314.3 323.5,330.5 "/>
<polygon class="st1" points="372.3,326.2 351.7,314.3 356,330.6 "/>
<polygon class="st1" points="351.7,314.3 339.7,334.9 356,330.6 "/>
<polygon class="st1" points="339.7,334.9 360.3,347 356,330.6 "/>
<polygon class="st1" points="360.3,347 372.3,326.2 356,330.6 "/>
<polygon class="st1" points="393,314.5 404.9,335.1 388.6,330.7 "/>
<polygon class="st1" points="404.9,335.1 384.2,346.9 388.6,330.7 "/>
<polygon class="st1" points="384.2,346.9 372.3,326.2 388.6,330.7 "/>
<polygon class="st1" points="372.3,326.2 393,314.5 388.6,330.7 "/>
<polygon class="st1" points="176.8,325.7 156.2,313.7 160.5,330 "/>
<polygon class="st1" points="156.2,313.7 144.2,334.3 160.5,330 "/>
<polygon class="st1" points="144.2,334.3 164.9,346.3 160.5,330 "/>
<polygon class="st1" points="164.9,346.3 176.9,325.6 160.5,330 "/>
<polygon class="st1" points="197.5,313.8 209.4,334.5 193.1,330.1 "/>
<polygon class="st1" points="209.4,334.5 188.7,346.4 193.1,330.1 "/>
<polygon class="st1" points="188.7,346.4 176.8,325.7 193.1,330.1 "/>
<polygon class="st1" points="176.8,325.7 197.5,313.8 193.1,330.1 "/>
<polygon class="st1" points="242,325.9 221.4,313.9 225.7,330.2 "/>
<polygon class="st1" points="221.4,313.9 209.4,334.5 225.7,330.2 "/>
<polygon class="st1" points="209.4,334.5 230,346.5 225.7,330.2 "/>
<polygon class="st1" points="230,346.5 242,325.9 225.7,330.2 "/>
<polygon class="st1" points="262.7,314 274.6,334.7 258.3,330.3 "/>
<polygon class="st1" points="274.6,334.7 253.9,346.6 258.3,330.3 "/>
<polygon class="st1" points="253.9,346.6 242,325.9 258.3,330.3 "/>
<polygon class="st1" points="242,325.9 262.7,314 258.3,330.3 "/>
<polygon class="st1" points="67.2,313.4 79.1,334.1 62.7,329.7 "/>
<polygon class="st1" points="79.1,334.1 58.3,346 62.7,329.7 "/>
<polygon class="st1" points="58.3,346 46.4,325.3 62.7,329.7 "/>
<polygon class="st1" points="46.4,325.3 67.2,313.4 62.7,329.7 "/>
<polygon class="st1" points="132.3,313.6 144.2,334.3 127.9,329.9 "/>
<polygon class="st1" points="144.2,334.3 123.5,346.2 127.9,329.9 "/>
<polygon class="st1" points="123.5,346.2 111.6,325.5 127.9,329.9 "/>
<polygon class="st1" points="111.6,325.5 132.3,313.6 127.9,329.9 "/>
<polygon class="st1" points="437.6,326.5 416.9,314.5 421.3,330.8 "/>
<polygon class="st1" points="416.9,314.5 405,335.1 421.3,330.8 "/>
<polygon class="st1" points="405,335.1 425.6,347.1 421.3,330.8 "/>
<polygon class="st1" points="425.6,347.1 437.6,326.5 421.3,330.8 "/>
<polygon class="st1" points="458.3,314.6 470.1,335.2 453.8,330.8 "/>
<polygon class="st1" points="470.1,335.2 449.4,347.2 453.8,330.8 "/>
<polygon class="st1" points="449.4,347.2 437.6,326.5 453.8,330.8 "/>
<polygon class="st1" points="437.6,326.5 458.3,314.6 453.8,330.8 "/>
<polygon class="st1" points="502.7,326.7 482.1,314.7 486.4,330.9 "/>
<polygon class="st1" points="482.1,314.7 470.1,335.2 486.4,330.9 "/>
<polygon class="st1" points="470.1,335.2 490.8,347.3 486.4,330.9 "/>
<polygon class="st1" points="490.8,347.3 502.7,326.7 486.4,330.9 "/>
<polygon class="st1" points="111.6,325.5 91,313.5 95.3,329.8 "/>
<polygon class="st1" points="91,313.5 79.1,334.1 95.3,329.8 "/>
<polygon class="st1" points="79.1,334.1 99.6,346.1 95.3,329.8 "/>
<polygon class="st1" points="99.6,346.1 111.6,325.5 95.3,329.8 "/>
</svg>
